<?xml version="1.0" encoding="UTF-8" standalone="no"?>
<!-- Created with Inkscape (http://www.inkscape.org/) -->

<svg
   xmlns:dc="http://purl.org/dc/elements/1.1/"
   xmlns:cc="http://creativecommons.org/ns#"
   xmlns:rdf="http://www.w3.org/1999/02/22-rdf-syntax-ns#"
   xmlns:svg="http://www.w3.org/2000/svg"
   xmlns="http://www.w3.org/2000/svg"
   xmlns:sodipodi="http://sodipodi.sourceforge.net/DTD/sodipodi-0.dtd"
   xmlns:inkscape="http://www.inkscape.org/namespaces/inkscape"
   width="64px"
   height="64px"
   id="svg2985"
   version="1.1"
   inkscape:version="0.48.4 r9939"
   sodipodi:docname="close.xvg.svg">
  <defs
     id="defs2987" />
  <sodipodi:namedview
     id="base"
     pagecolor="#ffffff"
     bordercolor="#666666"
     borderopacity="1.0"
     inkscape:pageopacity="0.0"
     inkscape:pageshadow="2"
     inkscape:zoom="5.5"
     inkscape:cx="32"
     inkscape:cy="32"
     inkscape:current-layer="layer1"
     showgrid="true"
     inkscape:document-units="px"
     inkscape:grid-bbox="true"
     inkscape:window-width="1280"
     inkscape:window-height="660"
     inkscape:window-x="-8"
     inkscape:window-y="-8"
     inkscape:window-maximized="1" />
  <metadata
     id="metadata2990">
    <rdf:RDF>
      <cc:Work
         rdf:about="">
        <dc:format>image/svg+xml</dc:format>
        <dc:type
           rdf:resource="http://purl.org/dc/dcmitype/StillImage" />
      </cc:Work>
    </rdf:RDF>
  </metadata>
  <g
     id="layer1"
     inkscape:label="Layer 1"
     inkscape:groupmode="layer">
    <path
       style="fill:none;stroke:#000000;stroke-width:1px;stroke-linecap:butt;stroke-linejoin:miter;stroke-opacity:1"
       d="M 56.727273,58 C 56.242424,57.393939 55.794813,56.756113 55.272727,56.181818 55.181567,56.081542 55.017506,56.081312 54.909091,56 54.772232,55.897356 54.102644,55.227768 54,55.090909 53.918688,54.982494 53.90284,54.833095 53.818182,54.727273 53.550469,54.392632 53.176804,54.152823 52.909091,53.818182 52.772584,53.647548 52.666667,53.454545 52.545455,53.272727 52.363636,53.090909 52.16461,52.924805 52,52.727273 c -0.139892,-0.167871 -0.242424,-0.363637 -0.363636,-0.545455 -0.181819,-0.242424 -0.348245,-0.497195 -0.545455,-0.727273 -0.167338,-0.195227 -0.391177,-0.33975 -0.545454,-0.545454 -0.590941,-0.984901 -0.428107,-0.784188 -1.09091,-1.636364 -0.714447,-0.918574 -1.454848,-1.81856 -2.181818,-2.727272 -0.242424,-0.303031 -0.499022,-0.595247 -0.727272,-0.909091 -0.257053,-0.353448 -0.450525,-0.752662 -0.727273,-1.090909 -2.445671,-2.989154 0.692771,1.347937 -1.818182,-2 -0.262222,-0.34963 -0.478507,-0.731582 -0.727273,-1.09091 -0.296759,-0.428652 -0.60606,-0.848484 -0.909091,-1.272727 -0.30303,-0.424242 -0.572327,-0.874733 -0.909091,-1.272727 -0.332181,-0.392579 -0.758727,-0.698331 -1.090909,-1.090909 -0.673528,-0.795988 -1.173975,-1.725556 -1.818181,-2.545455 -2.991608,-3.8075 0.745495,1.095917 -2.181819,-2.363636 -0.336764,-0.397994 -0.572327,-0.874734 -0.909091,-1.272727 -0.332181,-0.392579 -0.742097,-0.71303 -1.090909,-1.090909 C 33.605644,29.724297 32.93981,28.821158 32.181818,28 c -3.040022,-3.040022 0.724286,0.79013 -2,-2.181818 C 29.83432,25.439093 29.454545,25.090909 29.090909,24.727273 28.363636,24 27.636364,23.272727 26.909091,22.545455 26.545455,22.181818 26.16568,21.833634 25.818182,21.454545 25.498329,21.105615 25.2275,20.713886 24.909091,20.363636 c -0.576547,-0.634202 -1.241635,-1.183979 -1.818182,-1.818181 -0.385842,-0.424427 -1.246047,-1.512104 -1.636364,-2 C 21.212121,16.242424 20.985091,15.926409 20.727273,15.636364 20.499502,15.380122 20.242424,15.151515 20,14.909091 18.208614,13.117705 20.229589,15.207248 18.727273,13.454545 18.231651,12.87632 17.577631,12.402248 17.090909,11.818182 15.944102,10.442013 17.421566,11.967021 16.363636,10.909091 16.242424,10.787879 16.121212,10.666667 16,10.545455 15.878788,10.424242 15.773499,10.28467 15.636364,10.181818 15.527948,10.100507 15.368554,10.095827 15.272727,10 15.176901,9.9041734 15.166082,9.7491225 15.090909,9.6363636 15.043366,9.5650487 14.969697,9.5151515 14.909091,9.4545455 14.792647,9.3381019 14.29525,8.8974208 14.181818,8.7272727 14.106646,8.6145139 14.095827,8.459463 14,8.3636364 c -0.04285,-0.042855 -0.12761,0.027104 -0.181818,0 C 13.061498,7.9852945 14.012552,8.3761883 13.636364,8 13.593509,7.957145 13.4974,8.042855 13.454545,8 c -0.04285,-0.042855 0.0271,-0.1276105 0,-0.1818182 -0.378341,-0.7566837 0.01255,0.1943701 -0.363636,-0.1818182 -0.04285,-0.042855 0.0271,-0.1276104 0,-0.1818181 C 12.912451,7.0976286 12.745383,7.3726914 12.545455,7.2727273 12.30303,7.1515152 12.424242,7.030303 12.181818,6.9090909 c -0.05421,-0.027104 -0.138963,0.042855 -0.181818,0 -0.376188,-0.3761883 0.574866,0.014705 -0.181818,-0.3636364 -0.05421,-0.027104 -0.138963,0.042855 -0.181818,0 -0.04286,-0.042855 0.04285,-0.1389632 0,-0.1818181 -0.08571,-0.08571 -0.255221,0.054208 -0.363637,0 -0.07666,-0.038331 -0.105157,-0.1434876 -0.181818,-0.1818182 -0.05421,-0.027104 -0.138963,0.042855 -0.181818,0 C 10.866236,6.1389632 10.951946,6.042855 10.909091,6 10.866236,5.957145 10.78148,6.0271039 10.727273,6 10.325263,5.798995 10.670851,5.8871558 10.545455,5.6363636 10.401439,5.3483324 9.9369167,5.4545455 10.363636,5.4545455"
       id="path2993"
       inkscape:connector-curvature="0" />
    <path
       style="fill:none;stroke:#000000;stroke-width:1px;stroke-linecap:butt;stroke-linejoin:miter;stroke-opacity:1"
       d="M 54.909091,6 C 52.458907,12.261581 54.297334,8.3214536 52.363636,11.636364 52.227068,11.870481 52.14365,12.133796 52,12.363636 c -0.160606,0.25697 -0.363636,0.484849 -0.545455,0.727273 -0.363636,0.484849 -0.691815,0.998438 -1.090909,1.454546 -0.225761,0.258013 -0.516789,0.456651 -0.727272,0.727272 -0.216961,0.27895 -0.328494,0.630141 -0.545455,0.909091 -0.420966,0.541243 -0.999005,0.942063 -1.454545,1.454546 -0.845253,0.950909 -0.537847,0.834252 -1.454546,1.636363 -0.228053,0.199547 -0.499219,0.345908 -0.727273,0.545455 -0.258013,0.225761 -0.469259,0.501511 -0.727272,0.727273 C 44.499219,20.745001 44.228054,20.891362 44,21.090909 43.741987,21.316671 43.515152,21.575758 43.272727,21.818182 42.787879,22.30303 42.30303,22.787879 41.818182,23.272727 41.575758,23.515152 41.347151,23.77223 41.090909,24 c -0.290046,0.257818 -0.619045,0.469454 -0.909091,0.727273 -0.256241,0.22777 -0.471031,0.499502 -0.727273,0.727272 -0.290045,0.257819 -0.619045,0.469455 -0.90909,0.727273 -1.020665,0.907257 -0.491613,0.566438 -1.454546,1.636364 -0.286684,0.318538 -0.590552,0.622406 -0.909091,0.909091 -0.576897,0.519208 -1.241284,0.935337 -1.818182,1.454545 -0.318538,0.286685 -0.60606,0.606061 -0.909091,0.909091 -0.60606,0.606061 -1.212121,1.212121 -1.818181,1.818182 -0.969697,0.969697 -1.939394,1.939394 -2.909091,2.909091 -0.303031,0.30303 -0.620818,0.59199 -0.909091,0.909091 -0.318409,0.350249 -0.589238,0.741978 -0.909091,1.090909 -2.770955,2.770955 0.476624,-0.542468 -2,2.181818 -0.634202,0.697622 -1.365798,1.302378 -2,2 -0.261043,0.287147 -0.46623,0.621944 -0.727273,0.909091 C 21.83589,43.289612 21.436837,43.619479 21.090909,44 c -0.261043,0.287147 -0.484848,0.606061 -0.727273,0.909091 -0.363636,0.30303 -0.756201,0.574383 -1.090909,0.909091 -0.274405,0.274405 -0.484848,0.60606 -0.727272,0.909091 -0.484849,0.60606 -0.969697,1.212121 -1.454546,1.818182 -2.453207,3.066508 0.882704,-1.034779 -1.454545,1.636363 -0.399094,0.456107 -0.727273,0.969697 -1.090909,1.454546 -1.545188,2.060249 0.338798,-0.542077 -0.909091,1.454545 -0.160606,0.256969 -0.35146,0.494478 -0.545455,0.727273 -0.10974,0.131688 -0.286975,0.210314 -0.363636,0.363636 -0.111752,0.223504 -0.07007,0.503769 -0.181818,0.727273 -0.07666,0.153322 -0.260785,0.2265 -0.363637,0.363636 C 12.100507,55.381143 12.081312,55.527948 12,55.636364 11.897148,55.773499 11.739216,55.862864 11.636364,56 c -0.08131,0.108415 -0.121212,0.242424 -0.181819,0.363636 -0.06061,0.121212 -0.138963,0.235072 -0.181818,0.363637 -0.01916,0.0575 0.0271,0.12761 0,0.181818 -0.07666,0.153322 -0.286975,0.210314 -0.363636,0.363636 -0.0271,0.05421 -0.06061,0.181818 0,0.181818 0.135519,0 0.242424,-0.121212 0.363636,-0.181818"
       id="path2995"
       inkscape:connector-curvature="0" />
  </g>
</svg>
