<?xml version="1.0" encoding="UTF-8" standalone="no"?>
<!-- Created with Inkscape (http://www.inkscape.org/) -->

<svg
   xmlns:dc="http://purl.org/dc/elements/1.1/"
   xmlns:cc="http://creativecommons.org/ns#"
   xmlns:rdf="http://www.w3.org/1999/02/22-rdf-syntax-ns#"
   xmlns:svg="http://www.w3.org/2000/svg"
   xmlns="http://www.w3.org/2000/svg"
   xmlns:sodipodi="http://sodipodi.sourceforge.net/DTD/sodipodi-0.dtd"
   xmlns:inkscape="http://www.inkscape.org/namespaces/inkscape"
   width="64px"
   height="64px"
   id="svg2985"
   version="1.1"
   inkscape:version="0.48.4 r9939"
   sodipodi:docname="vmax.svg">
  <defs
     id="defs2987" />
  <sodipodi:namedview
     id="base"
     pagecolor="#ffffff"
     bordercolor="#666666"
     borderopacity="1.0"
     inkscape:pageopacity="0.0"
     inkscape:pageshadow="2"
     inkscape:zoom="5.5"
     inkscape:cx="32"
     inkscape:cy="32"
     inkscape:current-layer="layer1"
     showgrid="true"
     inkscape:document-units="px"
     inkscape:grid-bbox="true"
     inkscape:window-width="1280"
     inkscape:window-height="660"
     inkscape:window-x="-8"
     inkscape:window-y="-8"
     inkscape:window-maximized="1" />
  <metadata
     id="metadata2990">
    <rdf:RDF>
      <cc:Work
         rdf:about="">
        <dc:format>image/svg+xml</dc:format>
        <dc:type
           rdf:resource="http://purl.org/dc/dcmitype/StillImage" />
        <dc:title></dc:title>
      </cc:Work>
    </rdf:RDF>
  </metadata>
  <g
     id="layer1"
     inkscape:label="Layer 1"
     inkscape:groupmode="layer">
    <g
       id="g3011"
       transform="matrix(0,1,-1,0,60.363638,-0.36363539)">
      <path
         inkscape:connector-curvature="0"
         id="path3005"
         d="M 50.545455,21.454545 C 49.081345,21.036477 48.927051,19.068914 47.818182,18.181818 47.647548,18.045311 47.454545,17.939394 47.272727,17.818182 46.661435,17.410653 46.013546,17.024598 45.454545,16.545455 45.259318,16.378117 45.104318,16.167338 44.909091,16 44.448935,15.605581 43.910653,15.308185 43.454545,14.909091 43.196532,14.683329 42.983514,14.409588 42.727273,14.181818 42.244515,13.679217 41.610951,13.364128 41.090909,12.909091 40.832896,12.683329 40.634258,12.392301 40.363636,12.181818 40.084686,11.964857 39.733495,11.853325 39.454545,11.636364 39.183924,11.42588 38.997894,11.119574 38.727273,10.909091 36.93521,9.5152644 38.63522,11.169454 37.090909,9.8181818 36.832896,9.5924203 36.634258,9.3013923 36.363636,9.0909091 36.084686,8.873948 35.748585,8.7414806 35.454545,8.5454545 33.394296,7.0002674 35.996623,8.8842527 34,7.6363636 33.743031,7.4757579 33.529696,7.2515148 33.272727,7.0909091 33.042887,6.947259 32.780782,6.8617455 32.545455,6.7272727 32.355728,6.6188573 32.189727,6.4720518 32,6.3636364 31.764673,6.2291636 31.508055,6.1344728 31.272727,6 31.083,5.8915846 30.922721,5.734088 30.727273,5.6363636 30.555853,5.5506537 30.346159,5.5531502 30.181818,5.4545455 30.034827,5.3663507 29.955318,5.193761 29.818182,5.0909091 29.709766,5.0095975 29.575758,4.969697 29.454545,4.9090909 29.333333,4.8484848 29.222382,4.760141 29.090909,4.7272727 c -0.117593,-0.029398 -0.246043,0.029398 -0.363636,0 -0.87799,-0.2194974 0.009,-0.086404 -0.545455,-0.3636363 -0.108415,-0.054208 -0.255221,0.054208 -0.363636,0 -0.07666,-0.038331 -0.105157,-0.1434876 -0.181818,-0.1818182 -0.05421,-0.027104 -0.138964,0.042855 -0.181819,0 -0.04285,-0.042855 0.04285,-0.1389632 0,-0.1818182 -0.04285,-0.042855 -0.121212,0 -0.181818,0 -0.06061,0 -0.12761,-0.027104 -0.181818,0 -0.490678,0.2453392 0.0063,0.081495 -0.181818,0.3636364 -0.09509,0.1426299 -0.260785,0.2265005 -0.363636,0.3636363 C 26.308501,5.0432102 26.418771,5.138608 26.181818,5.4545455 26.078966,5.5916813 25.925267,5.6843254 25.818182,5.8181818 25.246232,6.5331193 25.624171,6.2376902 25.090909,7.0909091 24.930303,7.3478783 24.713546,7.5660454 24.545455,7.8181818 24.349428,8.1122209 24.196026,8.4332336 24,8.7272727 c -0.168091,0.2521365 -0.389547,0.4674264 -0.545455,0.7272728 -0.347593,0.5793225 -0.561497,1.2388595 -0.90909,1.8181815 -0.224854,0.374756 -0.492639,0.722198 -0.727273,1.090909 -0.379454,0.596285 -0.698857,1.230104 -1.090909,1.818182 -0.168091,0.252137 -0.377364,0.475136 -0.545455,0.727273 -0.196026,0.294039 -0.349428,0.615052 -0.545454,0.909091 -0.168091,0.252136 -0.363637,0.484848 -0.545455,0.727273 -0.3757,0.500934 -0.871726,1.178076 -1.272727,1.636363 -0.169321,0.19351 -0.378117,0.350227 -0.545455,0.545455 -0.197209,0.230077 -0.331179,0.512998 -0.545454,0.727272 C 16.512998,19.66882 16.214275,19.785725 16,20 c -0.214275,0.214275 -0.348245,0.497195 -0.545455,0.727273 -1.593553,1.593553 0.356575,-0.42789 -0.90909,1.090909 -0.22623,0.271475 -0.86468,0.819433 -1.09091,1.090909 C 12.4693,24.091385 13.611958,22.828556 12.909091,24 c -0.0882,0.146991 -0.260785,0.226501 -0.363636,0.363636 -0.08131,0.108416 -0.121213,0.242425 -0.181819,0.363637 C 12.242738,24.96907 12.120898,25.212749 12,25.454545"
         style="fill:none;stroke:#000000;stroke-width:1px;stroke-linecap:butt;stroke-linejoin:miter;stroke-opacity:1" />
      <path
         inkscape:connector-curvature="0"
         id="path3007"
         d="M 30.363636,6.1818182 C 29.939394,5.9393939 29.540023,5.647023 29.090909,5.4545455 c -0.05571,-0.023874 0.0271,0.1276104 0,0.1818181 C 28.487894,6.2393786 29.176619,5.4649438 28.909091,6 c -0.03833,0.076661 -0.154714,0.1005066 -0.181818,0.1818182 -0.07666,0.2299838 0.0588,0.4920866 0,0.7272727 C 28.437039,8.0700253 28.545455,6.0988367 28.545455,8 c 0,1.6172283 0.0441,-0.7605128 -0.181819,1.2727273 -0.03346,0.3011769 0,0.6060606 0,0.9090907 0,1.030303 0,2.060606 0,3.090909 0,2.666667 0,5.333334 0,8 0,3.38975 -0.05262,-1.023751 0.181819,2.727273 0.06049,0.967809 -0.06049,1.941282 0,2.909091 0.03048,0.48767 0.151338,0.966875 0.181818,1.454545 0.03024,0.483905 0,0.969697 0,1.454546 0,0.969697 0,1.939394 0,2.909091 0,1.333333 0,2.666666 0,4 0,0.484848 0.03024,0.970641 0,1.454545 -0.03048,0.48767 -0.147006,0.967166 -0.181818,1.454546 -0.02591,0.362712 0,0.727272 0,1.090909 0,0.484848 -0.03454,0.970929 0,1.454545 0.241599,3.382395 0.181818,-1.184242 0.181818,2.181818 0,0.05207 0,1.845523 0,2 0,0.303031 0,0.606061 0,0.909091 0,0.242425 -0.03007,0.486721 0,0.727273 0.03099,0.247956 0.150823,0.479317 0.181818,0.727273 0.03007,0.240552 -0.03007,0.48672 0,0.727272 0.03099,0.247956 0.146479,0.479899 0.181818,0.727273 0.02571,0.179991 0,0.363637 0,0.545455 0,0.181818 0,0.363636 0,0.545454 0,0.181818 0,0.363637 0,0.545455 0,0.181818 -0.03566,0.367167 0,0.545454 0.02658,0.132888 0.14895,0.232164 0.181818,0.363637 0.0294,0.117593 -0.03833,0.248644 0,0.363636 0.0271,0.08131 0.143488,0.105157 0.181818,0.181818 0.0271,0.05421 0,0.121212 0,0.181818 0,0.06061 0,0.121213 0,0.181819 0,0.06061 0,0.121212 0,0.181818 0,0.06061 -0.0271,0.12761 0,0.181818 0.03833,0.07666 0.143488,0.105157 0.181819,0.181818 0.0271,0.05421 0.06061,0.181818 0,0.181818 -0.06061,0 0,-0.121212 0,-0.181818"
         style="fill:none;stroke:#000000;stroke-width:1px;stroke-linecap:butt;stroke-linejoin:miter;stroke-opacity:1" />
      <path
         inkscape:connector-curvature="0"
         id="path3009"
         d="m 45.636364,43.090909 c -0.749237,2.247711 0.111525,0.207501 -0.909091,1.636364 -0.157538,0.220553 -0.206099,0.506719 -0.363637,0.727272 -0.298907,0.418471 -0.756233,0.700455 -1.090909,1.09091 -0.197209,0.230077 -0.348245,0.497195 -0.545454,0.727272 -0.167338,0.195228 -0.363637,0.363637 -0.545455,0.545455 C 42,48 41.833896,48.199026 41.636364,48.363636 c -0.167871,0.139892 -0.390939,0.209121 -0.545455,0.363637 -0.214275,0.214275 -0.33118,0.512998 -0.545454,0.727272 C 40.390939,49.609061 40.181818,49.69697 40,49.818182 39.757576,50 39.487002,50.149362 39.272727,50.363636 c -0.154515,0.154516 -0.20912,0.390939 -0.363636,0.545455 -0.214275,0.214275 -0.512998,0.33118 -0.727273,0.545454 -0.154516,0.154516 -0.195766,0.405563 -0.363636,0.545455 -0.208218,0.173515 -0.519055,0.190122 -0.727273,0.363636 -0.16787,0.139892 -0.223744,0.377585 -0.363636,0.545455 -0.274351,0.329221 -0.606061,0.606061 -0.909091,0.909091 -0.121212,0.121212 -0.242424,0.242424 -0.363637,0.363636 -0.121212,0.121212 -0.2265,0.260785 -0.363636,0.363637 -0.108415,0.08131 -0.255221,0.100506 -0.363636,0.181818 -0.205704,0.154278 -0.33151,0.402824 -0.545455,0.545454 -0.112759,0.07517 -0.250877,0.106646 -0.363636,0.181818 -0.07131,0.04754 -0.105157,0.143488 -0.181818,0.181819 -0.05421,0.0271 -0.127611,-0.0271 -0.181819,0 -0.153322,0.07666 -0.210313,0.286975 -0.363636,0.363636 -0.05533,0.02767 -0.463571,0 -0.545454,0 -0.06061,0 -0.138964,0.04286 -0.181819,0 -0.08571,-0.08571 0.08571,-0.277926 0,-0.363636 -0.08571,-0.08571 -0.255221,0.05421 -0.363636,0 -0.07666,-0.03833 -0.105157,-0.143488 -0.181818,-0.181819 -0.108416,-0.05421 -0.277927,0.08571 -0.363637,0 -0.04285,-0.04286 0.04285,-0.138963 0,-0.181818 -0.08571,-0.08571 -0.25522,0.05421 -0.363636,0 -0.756684,-0.378342 0.19437,0.01255 -0.181818,-0.363636 -0.04285,-0.04285 -0.121212,0 -0.181818,0 -0.145083,0 -0.800011,0.03636 -0.909091,0 -0.128565,-0.04285 -0.235072,-0.138963 -0.363637,-0.181818 -0.0575,-0.01917 -0.12761,0.0271 -0.181818,0 -0.07666,-0.03833 -0.110503,-0.134275 -0.181818,-0.181818 -0.112759,-0.07517 -0.242424,-0.121213 -0.363636,-0.181819 -0.121212,-0.06061 -0.232164,-0.14895 -0.363637,-0.181818 -0.117593,-0.0294 -0.255221,0.05421 -0.363636,0 -0.153323,-0.07666 -0.226501,-0.260784 -0.363636,-0.363636 -0.317736,-0.238302 -0.542409,-0.180296 -0.909091,-0.363637 -0.195449,-0.09772 -0.355728,-0.25522 -0.545455,-0.363636 -0.235327,-0.134473 -0.491945,-0.229163 -0.727273,-0.363636 -0.709414,-0.40538 -1.348448,-0.965882 -2,-1.454546 -0.790443,-0.592832 -1.624631,-1.161289 -2.363636,-1.818182 -0.256241,-0.22777 -0.46926,-0.501511 -0.727273,-0.727272 -0.228053,-0.199547 -0.488075,-0.359412 -0.727272,-0.545455 -0.306323,-0.238251 -0.591173,-0.50473 -0.909091,-0.727273 C 18.437764,47.251889 18.097132,47.126052 17.818182,46.909091 17.547561,46.698608 17.348922,46.40758 17.090909,46.181818 16.634802,45.782724 16.121212,45.454545 15.636364,45.090909 15.393939,44.909091 15.151515,44.727273 14.909091,44.545455 14.666667,44.363636 14.438787,44.160606 14.181818,44 13.951978,43.85635 13.680063,43.786709 13.454545,43.636364 13.311916,43.541277 13.222597,43.382468 13.090909,43.272727 12.858115,43.078732 12.596431,42.921268 12.363636,42.727273 12.231948,42.617532 12.133856,42.470721 12,42.363636 11.829366,42.227129 11.62518,42.136507 11.454545,42 c -0.133856,-0.107085 -0.2265,-0.260784 -0.363636,-0.363636 -0.108415,-0.08131 -0.26781,-0.08599 -0.363636,-0.181819 -0.472052,-0.472051 0.164809,-0.363636 -0.545455,-0.363636"
         style="fill:none;stroke:#000000;stroke-width:1px;stroke-linecap:butt;stroke-linejoin:miter;stroke-opacity:1" />
    </g>
  </g>
</svg>
