<?xml version="1.0" encoding="UTF-8" standalone="no"?>
<!-- Created with Inkscape (http://www.inkscape.org/) -->

<svg
   xmlns:dc="http://purl.org/dc/elements/1.1/"
   xmlns:cc="http://creativecommons.org/ns#"
   xmlns:rdf="http://www.w3.org/1999/02/22-rdf-syntax-ns#"
   xmlns:svg="http://www.w3.org/2000/svg"
   xmlns="http://www.w3.org/2000/svg"
   xmlns:sodipodi="http://sodipodi.sourceforge.net/DTD/sodipodi-0.dtd"
   xmlns:inkscape="http://www.inkscape.org/namespaces/inkscape"
   width="64px"
   height="64px"
   id="svg2985"
   version="1.1"
   inkscape:version="0.48.4 r9939"
   sodipodi:docname="max.svg">
  <defs
     id="defs2987" />
  <sodipodi:namedview
     id="base"
     pagecolor="#ffffff"
     bordercolor="#666666"
     borderopacity="1.0"
     inkscape:pageopacity="0.0"
     inkscape:pageshadow="2"
     inkscape:zoom="5.5"
     inkscape:cx="32"
     inkscape:cy="32"
     inkscape:current-layer="layer1"
     showgrid="true"
     inkscape:document-units="px"
     inkscape:grid-bbox="true"
     inkscape:window-width="1280"
     inkscape:window-height="660"
     inkscape:window-x="-8"
     inkscape:window-y="-8"
     inkscape:window-maximized="1" />
  <metadata
     id="metadata2990">
    <rdf:RDF>
      <cc:Work
         rdf:about="">
        <dc:format>image/svg+xml</dc:format>
        <dc:type
           rdf:resource="http://purl.org/dc/dcmitype/StillImage" />
        <dc:title />
      </cc:Work>
    </rdf:RDF>
  </metadata>
  <g
     id="layer1"
     inkscape:label="Layer 1"
     inkscape:groupmode="layer">
    <g
       id="g2988"
       transform="matrix(0.95576001,0,0,0.95576001,2.1267844,3.57262)">
      <path
         inkscape:connector-curvature="0"
         id="path3042"
         d="M 42,7.6363636 C 40.495444,7.3431783 40.310654,5.5576141 39.272727,4.7272727 38.931459,4.4542582 38.545455,4.2424242 38.181818,4 37.818182,3.7575758 37.470363,3.4895581 37.090909,3.2727273 36.855582,3.1382545 36.598964,3.0435637 36.363636,2.9090909 36.173909,2.8006755 36,2.6666667 35.818182,2.5454545 35.454545,2.3030303 35.090909,2.0606061 34.727273,1.8181818 34.320181,1.5467876 34.043455,1.3623033 33.636364,1.0909091 33.454545,0.96969697 33.261543,0.86378 33.090909,0.72727273 32.234531,0.04217012 33.301058,0.67154394 32.181818,0 c -0.794339,-0.4766037 0.131611,0.15671433 -0.909091,-0.36363636 -0.83211,-0.41605522 0.771531,0.0753586 -0.545454,-0.36363637 -0.172488,-0.0574959 -0.372967,0.057496 -0.545455,0 -0.177406,-0.0591355 -0.129531,-0.29887097 -0.363636,-0.18181818 -0.07666,0.0383306 -0.105157,0.14348754 -0.181818,0.18181818 -0.250793,0.1253961 -0.162632,-0.22019181 -0.363637,0.18181818 -0.04848,0.0969697 0.04848,0.26666667 0,0.36363637 C 29.234397,-0.10515691 29.12924,-0.07666128 29.090909,0 c -0.05421,0.10841542 0.08571,0.27792645 0,0.36363636 -0.04285,0.042855 -0.12761,-0.0271038 -0.181818,0 -0.756684,0.37834186 0.19437,-0.0125519 -0.181818,0.36363637 -0.09583,0.0958266 -0.26781,0.0859916 -0.363637,0.18181818 -0.04285,0.042855 0.05421,0.15471429 0,0.18181819 -0.108415,0.054208 -0.262781,-0.067236 -0.363636,0 -0.112759,0.075173 -0.08599,0.2678098 -0.181818,0.3636364 -0.191653,0.1916531 -0.515627,0.1943199 -0.727273,0.3636363 -0.532138,0.1629622 -0.545454,0.7878788 -0.909091,1.0909091 -0.208217,0.1735147 -0.521485,0.1872468 -0.727273,0.3636364 -0.01135,0.00973 -1.062973,1.4226191 -1.090909,1.4545454 -0.225761,0.2580132 -0.501511,0.4692596 -0.727272,0.7272728 -0.274604,0.3138324 -0.816306,1.1407129 -1.090909,1.4545454 -1.899787,1.8997865 0.201488,-0.3548107 -1.09091,1.4545455 -0.149453,0.209235 -0.363636,0.3636363 -0.545454,0.5454545 C 20.727273,9.0909091 20.545455,9.2727273 20.363636,9.4545455 20.242424,9.5757576 20.107085,9.6843254 20,9.8181818 c -0.901498,1.1268722 0.02104,0.059356 -0.545455,0.9090912 -0.221786,0.332679 -0.231807,0.01814 -0.363636,0.545454 -0.0294,0.117593 0.05421,0.255221 0,0.363637 -0.0271,0.05421 -0.181818,-0.06061 -0.181818,0 0,0.279582 0.369079,0.550897 0.545454,0.727272"
         style="fill:none;stroke:#000000;stroke-width:1px;stroke-linecap:butt;stroke-linejoin:miter;stroke-opacity:1" />
      <path
         inkscape:connector-curvature="0"
         id="path3044"
         d="m 28.181818,-0.72727273 c 0.181818,1.3939394 0.414241,2.78220823 0.545455,4.18181823 0.05091,0.5430732 0,1.090909 0,1.6363636 0,0.3636364 0,0.7272727 0,1.0909091 0,1.3333333 0,2.6666666 0,3.9999998 0,1.515152 0,3.030303 0,4.545455 0,0.545454 0,1.090909 0,1.636363 0,0.484849 -0.02689,0.970444 0,1.454546 0.02627,0.472854 0.303917,2.917073 0.363636,3.454545 0.3163,2.846696 0.637534,5.694101 0.909091,8.545455 0.184693,1.939277 0.351611,3.879745 0.545455,5.818182 0.05079,0.507893 0.343889,3.383751 0.363636,3.818181 0.179805,3.955717 -0.230611,0.106325 0.181818,3.818182 0.05396,0.485633 0.127859,0.968913 0.181818,1.454546 0.06726,0.605358 0.114556,1.212823 0.181818,1.818182 0.05396,0.485633 0.149316,0.967006 0.181819,1.454545 0.02822,0.423303 -0.03023,0.849563 0,1.272727 0.294894,4.128524 0.05894,-1.292701 0.363636,2.363637 0.0302,0.36238 -0.03292,0.728766 0,1.090909 0.05596,0.615524 0.295383,1.203899 0.363636,1.818182 0.04685,0.421647 0,0.848484 0,1.272727 0,0.181818 -0.03566,0.367167 0,0.545454 0.02658,0.132888 0.14895,0.232164 0.181819,0.363637 0.0294,0.117593 0,0.242424 0,0.363636 0.06061,0.121212 0.138963,0.235072 0.181818,0.363636 0.03341,0.100242 -0.03887,0.688401 0,0.727273 0.04286,0.04286 0.138963,-0.04286 0.181818,0 0.04286,0.04286 0,0.121212 0,0.181818 0,0.06061 0.04286,0.138964 0,0.181819 -0.04285,0.04286 -0.138963,-0.04285 -0.181818,0 -0.08571,0.08571 0.08571,0.277926 0,0.363636 -0.249555,0.249554 -0.181818,-0.320856 -0.181818,-0.363636"
         style="fill:none;stroke:#000000;stroke-width:1px;stroke-linecap:butt;stroke-linejoin:miter;stroke-opacity:1" />
      <path
         inkscape:connector-curvature="0"
         id="path3046"
         d="m 39.818182,52.727273 c 0.424242,-0.666667 0.848485,-1.333334 1.272727,-2 0,-0.06061 -0.01917,-0.124322 0,-0.181818 0.04285,-0.128565 0.106646,-0.250878 0.181818,-0.363637 0.04754,-0.07131 0.154715,-0.100506 0.181818,-0.181818 0.03833,-0.114992 -0.03833,-0.248644 0,-0.363636 0.0271,-0.08131 0.134275,-0.110504 0.181819,-0.181819 0.07517,-0.112758 0.138963,-0.235071 0.181818,-0.363636 0.01917,-0.0575 0,-0.121212 0,-0.181818 0.06061,-0.06061 0.143487,-0.105157 0.181818,-0.181818 0.0271,-0.05421 -0.0271,-0.127611 0,-0.181818 0.03833,-0.07666 0.242424,-0.121213 0.181818,-0.181819 -0.355132,-0.355131 -0.470452,0.288634 -0.545454,0.363637 -0.04286,0.04286 -0.131391,-0.03362 -0.181819,0 -0.142629,0.09509 -0.22978,0.256551 -0.363636,0.363636 -0.497082,0.397666 -1.149976,0.685587 -1.636364,1.090909 -0.197532,0.164611 -0.350227,0.378117 -0.545454,0.545455 -0.230078,0.197209 -0.499219,0.345907 -0.727273,0.545454 -0.516026,0.451523 -0.969697,0.969697 -1.454545,1.454546 -0.484849,0.484848 -0.999005,0.942062 -1.454546,1.454545 -0.257818,0.290046 -0.469454,0.619045 -0.727272,0.909091 -0.455541,0.512483 -1.003023,0.938519 -1.454546,1.454546 -0.199547,0.228053 -0.348245,0.497195 -0.545454,0.727272 -0.167338,0.195228 -0.378117,0.350227 -0.545455,0.545455 -0.19721,0.230078 -0.33118,0.512998 -0.545455,0.727273 -0.154515,0.154515 -0.37482,0.227129 -0.545454,0.363636 -0.133856,0.107085 -0.242424,0.242424 -0.363636,0.363636 -0.121213,0.121212 -0.242425,0.242425 -0.363637,0.363637 -0.121212,0.121212 -0.2265,0.260784 -0.363636,0.363636 -0.108416,0.08131 -0.26781,0.08599 -0.363637,0.181818 -0.04285,0.04286 0.05421,0.154715 0,0.181818 -0.108415,0.05421 -0.25522,-0.05421 -0.363636,0 -0.05421,0.0271 0.04285,0.138964 0,0.181819 -0.04285,0.04286 -0.138963,0.04286 -0.181818,0 -0.03717,-0.03717 0.03605,-0.473366 0,-0.545455 -0.03833,-0.07666 -0.143488,-0.105157 -0.181818,-0.181818 -0.05364,-0.107277 0.04169,-0.420394 0,-0.545455 -0.104666,-0.313996 -0.258971,-0.413276 -0.363637,-0.727272 -0.01917,-0.0575 0.03362,-0.131391 0,-0.181819 C 28.26855,58.221006 28.088195,58.146991 28,58 c -0.366682,-0.611137 0.0043,-0.4185 -0.363636,-0.909091 -0.25713,-0.34284 -0.634741,-0.57987 -0.909091,-0.909091 -0.139892,-0.16787 -0.242425,-0.363636 -0.363637,-0.545454 C 26.181818,55.393939 26.015391,55.139169 25.818182,54.909091 25.483506,54.518636 25.056494,54.213247 24.727273,53.818182 24.587381,53.650311 24.484848,53.454545 24.363636,53.272727 24.121212,53.090909 23.833573,52.95735 23.636364,52.727273 23.459974,52.521485 23.446242,52.208218 23.272727,52 c -0.01009,-0.01211 -1.051636,-0.695854 -1.090909,-0.727273 -0.267713,-0.21417 -0.484848,-0.484848 -0.727273,-0.727272 -0.121212,-0.121213 -0.221006,-0.26855 -0.363636,-0.363637 -0.05043,-0.03362 -0.12761,0.0271 -0.181818,0 -0.153323,-0.07666 -0.210314,-0.286975 -0.363636,-0.363636 -0.05421,-0.0271 -0.127611,0.0271 -0.181819,0 -0.224673,-0.112337 -0.181818,-0.175542 -0.181818,-0.363637"
         style="fill:none;stroke:#000000;stroke-width:1px;stroke-linecap:butt;stroke-linejoin:miter;stroke-opacity:1" />
      <path
         inkscape:connector-curvature="0"
         id="path3048"
         d="M 60.909091,27.818182 C 59.636364,27.878788 58.36406,27.949074 57.090909,28 c -0.845114,0.03381 -1.699637,0 -2.545454,0 -1.575758,0 -3.151516,0 -4.727273,0 C 49.212121,28 48.606061,28 48,28 47.636364,28 47.271234,27.96708 46.909091,28 46.601329,28.02798 46.304047,28.126537 46,28.181818 c -0.362706,0.06595 -0.723771,0.148442 -1.090909,0.181818 -0.663929,0.06036 -1.335636,-0.05536 -2,0 -0.367379,0.03062 -0.72353,0.151204 -1.090909,0.181819 -0.36238,0.0302 -0.728766,-0.03292 -1.090909,0 -0.307763,0.02798 -0.601329,0.153839 -0.909091,0.181818 -0.362143,0.03292 -0.727273,0 -1.090909,0 -0.666667,0 -1.333334,0 -2,0 -0.363637,0 -0.728529,-0.0302 -1.090909,0 -0.367379,0.03062 -0.723531,0.151203 -1.090909,0.181818 -0.362381,0.0302 -0.728529,-0.0302 -1.09091,0 -0.367378,0.03062 -0.72353,0.151203 -1.090909,0.181818 -0.36238,0.0302 -0.728528,-0.0302 -1.090909,0 -0.367379,0.03062 -0.727272,0.121212 -1.090909,0.181818 -0.363636,0.06061 -0.727273,0.121212 -1.090909,0.181818 -0.727273,0.121213 -1.463395,0.197847 -2.181818,0.363637 -2.485056,0.573474 -0.120742,0.200394 -2.363636,0.545454 -3.041396,0.467907 0.357517,-0.08989 -2.363637,0.363637 -0.363636,0.06061 -0.72353,0.151203 -1.090909,0.181818 -0.36238,0.0302 -0.728529,-0.0302 -1.090909,0 -3.511348,0.292612 1.044046,0.05923 -2,0.363636 -0.301526,0.03015 -0.607305,-0.02744 -0.909091,0 -0.643072,-0.07655 -1.203899,0.295383 -1.818182,0.363637 -0.301177,0.03346 -0.607914,-0.03346 -0.909091,0 -0.248356,0.02759 -0.483338,0.12761 -0.727272,0.181818 -0.301673,0.06704 -0.602446,0.143487 -0.909091,0.181818 -0.420967,0.05262 -0.851761,-0.05262 -1.272728,0 -0.247955,0.03099 -0.479899,0.146479 -0.727272,0.181818 -0.179991,0.02571 -0.363637,0 -0.545455,0 -0.4242422,0 -0.8484847,0 -1.2727271,0 -0.3636364,0 -0.7272727,0 -1.0909091,0 -0.1818182,0 -0.3671671,0.03566 -0.5454545,0 C 7.1398397,32.155241 7.0419785,32.026578 6.9090909,32 6.6119452,31.940571 6.3030303,32 6,32 5.4545455,32 4.9090909,32 4.3636364,32 4.2371746,32 3.520297,32.03288 3.4545455,32 3.3778845,31.96167 3.3493885,31.856512 3.2727273,31.818182 c -0.1090681,-0.05453 -0.2545683,0.05453 -0.3636364,0 -0.076661,-0.03833 -0.1051569,-0.143488 -0.1818182,-0.181818 -0.047807,-0.0239 -0.6321962,0 -0.7272727,0"
         style="fill:none;stroke:#000000;stroke-width:1px;stroke-linecap:butt;stroke-linejoin:miter;stroke-opacity:1" />
      <path
         inkscape:connector-curvature="0"
         id="path3050"
         d="m 7.0909091,24.727273 c -1.7130249,3.42605 -0.7739243,2.410288 -2,3.636363 C 4.969697,28.484848 4.8343578,28.593416 4.7272727,28.727273 4.4542582,29.068541 4.3090315,29.50915 4,29.818182 3.8454843,29.972698 3.6251795,30.045311 3.4545455,30.181818 3.0806073,30.480969 2.7404656,30.990105 2.3636364,31.272727 2.1229332,31.453255 1.8770668,31.455836 1.6363636,31.636364 1.4992278,31.739216 1.4153572,31.904913 1.2727273,32 1.2223,32.033618 1.1413364,31.966382 1.0909091,32 c -0.14262993,0.09509 -0.21031382,0.286975 -0.36363637,0.363636 -0.11159018,0.0558 -0.79638146,-0.05635 -0.90909091,0 -0.0766613,0.03833 -0.10515691,0.143488 -0.18181818,0.181819 -0.10841542,0.05421 -0.27792645,-0.08571 -0.36363637,0 -0.025641,0.02564 -0.018648,0.508158 0,0.545454 0.0383306,0.07666 0.10515691,0.143488 0.18181818,0.181818 0.0542077,0.0271 0.13896323,-0.04286 0.18181819,0 0.042855,0.04285 -0.0542077,0.154715 0,0.181818 0.10841541,0.05421 0.25522094,-0.05421 0.36363636,0 0.05420771,0.0271 -0.04285496,0.138964 0,0.181819 0.0958266,0.09583 0.26780977,0.08599 0.36363636,0.181818 0.042855,0.04286 -0.0336182,0.131391 0,0.181818 0.65390704,0.980861 0.0565923,-0.125226 0.72727274,0.545455 0.095827,0.09583 0.1005066,0.25522 0.1818182,0.363636 0.1028519,0.137136 0.2424242,0.242424 0.3636363,0.363636 C 1.7575758,35.393939 1.8661436,35.529279 2,35.636364 2.1706341,35.772871 2.3748205,35.863493 2.5454545,36 c 0.1338564,0.107085 0.22978,0.256551 0.3636364,0.363636 C 3.2503591,36.636651 3.6587318,36.817895 4,37.090909 4.1338564,37.197994 4.22978,37.34746 4.3636364,37.454545 4.7049045,37.72756 5.1188047,37.902034 5.4545455,38.181818 5.652078,38.346429 5.8024675,38.562662 6,38.727273 c 0.1678704,0.139892 0.3909388,0.20912 0.5454545,0.363636 0.1545158,0.154516 0.2271291,0.374821 0.3636364,0.545455 0.2141702,0.267712 0.4848485,0.484848 0.7272727,0.727272 C 7.7575758,40.484848 7.8628641,40.624421 8,40.727273 c 0.1084154,0.08131 0.2508775,0.106645 0.3636364,0.181818 0.2082335,0.138822 0.2532362,0.324654 0.3636363,0.545454"
         style="fill:none;stroke:#000000;stroke-width:1px;stroke-linecap:butt;stroke-linejoin:miter;stroke-opacity:1" />
      <path
         inkscape:connector-curvature="0"
         id="path3052"
         d="m 54.181818,21.818182 c 0.969697,0.60606 1.957631,1.183875 2.909091,1.818182 C 58.751187,24.743216 56.044193,23.348064 58,24 c 0.207305,0.0691 0.33815,0.294535 0.545455,0.363636 0.172487,0.0575 0.372966,-0.0575 0.545454,0 0.207305,0.0691 0.342566,0.282481 0.545455,0.363637 0.112542,0.04502 0.251093,-0.04502 0.363636,0 0.202889,0.08115 0.33815,0.294535 0.545455,0.363636 1.603608,0.534536 -0.419132,-0.63253 0.90909,0.363636 0.108416,0.08131 0.242425,0.121213 0.363637,0.181819 0.242424,0.121212 0.484848,0.242424 0.727273,0.363636 0.121212,0.06061 0.250877,0.106646 0.363636,0.181818 0.156891,0.104594 0.403439,0.403439 0.545454,0.545455 0.06061,0.06061 0.105157,0.143487 0.181819,0.181818 0.05421,0.0271 0.12761,-0.0271 0.181818,0 0.07666,0.03833 0.242424,0.121212 0.181818,0.181818 -0.08571,0.08571 -0.255221,-0.05421 -0.363636,0 -0.05421,0.0271 0.04286,0.138963 0,0.181818 -0.03717,0.03717 -0.473365,-0.03604 -0.545455,0 -0.07666,0.03833 -0.121212,0.121212 -0.181818,0.181818 0,0.06061 0.05421,0.154715 0,0.181819 -0.108416,0.05421 -0.262782,-0.06724 -0.363636,0 -0.112759,0.07517 -0.106646,0.250877 -0.181819,0.363636 -0.04754,0.07131 -0.121212,0.121212 -0.181818,0.181818 -1.05793,1.05793 0.467078,-0.419535 -0.909091,0.727273 -1.187485,0.989571 0.112939,0.06888 -1.090909,1.272727 -0.214275,0.214275 -0.512998,0.33118 -0.727273,0.545455 -0.274405,0.274405 -0.469454,0.619045 -0.727272,0.909091 -0.227771,0.256241 -0.484849,0.484848 -0.727273,0.727272 -0.484848,0.484849 -0.969697,0.969697 -1.454545,1.454546 -0.242425,0.242424 -0.51679,0.456651 -0.727273,0.727273 -0.216961,0.27895 -0.349429,0.615051 -0.545455,0.90909 -0.336182,0.504273 -0.769697,0.940608 -1.090909,1.454546 -0.14365,0.22984 -0.242424,0.484848 -0.363636,0.727273"
         style="fill:none;stroke:#000000;stroke-width:1px;stroke-linecap:butt;stroke-linejoin:miter;stroke-opacity:1" />
    </g>
  </g>
</svg>
