<?xml version="1.0" encoding="UTF-8" standalone="no"?>
<!-- Created with Inkscape (http://www.inkscape.org/) -->

<svg
   xmlns:dc="http://purl.org/dc/elements/1.1/"
   xmlns:cc="http://creativecommons.org/ns#"
   xmlns:rdf="http://www.w3.org/1999/02/22-rdf-syntax-ns#"
   xmlns:svg="http://www.w3.org/2000/svg"
   xmlns="http://www.w3.org/2000/svg"
   xmlns:sodipodi="http://sodipodi.sourceforge.net/DTD/sodipodi-0.dtd"
   xmlns:inkscape="http://www.inkscape.org/namespaces/inkscape"
   width="64px"
   height="64px"
   id="svg2985"
   version="1.1"
   inkscape:version="0.48.4 r9939"
   sodipodi:docname="New document 2">
  <defs
     id="defs2987" />
  <sodipodi:namedview
     id="base"
     pagecolor="#ffffff"
     bordercolor="#666666"
     borderopacity="1.0"
     inkscape:pageopacity="0.0"
     inkscape:pageshadow="2"
     inkscape:zoom="5.5"
     inkscape:cx="32"
     inkscape:cy="32"
     inkscape:current-layer="layer1"
     showgrid="true"
     inkscape:document-units="px"
     inkscape:grid-bbox="true"
     inkscape:window-width="1280"
     inkscape:window-height="660"
     inkscape:window-x="-8"
     inkscape:window-y="-8"
     inkscape:window-maximized="1" />
  <metadata
     id="metadata2990">
    <rdf:RDF>
      <cc:Work
         rdf:about="">
        <dc:format>image/svg+xml</dc:format>
        <dc:type
           rdf:resource="http://purl.org/dc/dcmitype/StillImage" />
        <dc:title></dc:title>
      </cc:Work>
    </rdf:RDF>
  </metadata>
  <g
     id="layer1"
     inkscape:label="Layer 1"
     inkscape:groupmode="layer">
    <path
       style="fill:none;stroke:#000000;stroke-width:1px;stroke-linecap:butt;stroke-linejoin:miter;stroke-opacity:1"
       d="m 55.818182,5.4545455 c -1.69697,-0.3636364 -3.39394,-0.7272728 -5.090909,-1.0909091 -0.303031,0 -0.607914,0.033464 -0.909091,0 C 49.569825,4.3360412 49.333333,4.2424242 49.090909,4.1818182 48.787879,4.1212121 48.489316,4.0307498 48.181818,4 47.880292,3.9698474 47.574254,4.0301526 47.272727,4 46.965229,3.9692502 46.667683,3.8734631 46.363636,3.8181818 46.00093,3.7522353 45.635433,3.7023102 45.272727,3.6363636 44.96868,3.5810824 44.667683,3.5098267 44.363636,3.4545455 43.276054,3.2568033 42.181294,3.0908218 41.090909,2.9090909 40.727273,2.8484848 40.363636,2.7878788 40,2.7272727 39.636364,2.6666667 39.276657,2.5737289 38.909091,2.5454545 c -0.785558,-0.060427 -1.578479,0.06543 -2.363636,0 -0.367379,-0.030615 -0.723343,-0.1535438 -1.09091,-0.1818181 -0.422992,-0.032538 -0.848484,0 -1.272727,0 -0.363636,0 -0.727273,0 -1.090909,0 -0.727273,0 -1.454545,0 -2.181818,0 -0.363636,0 -0.728344,-0.02789 -1.090909,0 -0.427287,0.032868 -0.84544,0.1489499 -1.272727,0.1818181 -0.362566,0.02789 -0.728529,-0.030198 -1.09091,0 -0.734757,0.06123 -1.44706,0.3024066 -2.181818,0.3636364 -0.36238,0.030198 -0.73222,-0.059781 -1.090909,0 -0.378091,0.063015 -0.713785,0.2950684 -1.090909,0.3636364 -0.298142,0.054208 -0.610948,-0.054208 -0.909091,0 C 21.804695,3.3412952 21.469,3.5733485 21.090909,3.6363636 20.73222,3.6961451 20.357771,3.5713144 20,3.6363636 19.678891,3.6947471 19.410945,3.9359929 19.090909,4 18.793763,4.059429 18.478964,3.940571 18.181818,4 c -0.320035,0.064007 -0.589055,0.2996292 -0.909091,0.3636364 -0.297145,0.059429 -0.607914,-0.033464 -0.909091,0 -0.248356,0.027595 -0.484848,0.1212121 -0.727272,0.1818181 -0.303031,0.060606 -0.601593,0.1510684 -0.909091,0.1818182 -0.301527,0.030153 -0.607914,-0.033464 -0.909091,0 -0.496714,0.05519 -0.958635,0.3016475 -1.454546,0.3636364 -0.240552,0.030069 -0.48672,-0.030069 -0.727272,0 -2.2546996,0.2818374 0.538669,0.061737 -1.272728,0.3636364 -0.179344,0.029891 -0.3661098,-0.029891 -0.5454542,0 -0.3780911,0.063015 -0.7150462,0.2884638 -1.0909091,0.3636363 -0.1188582,0.023772 -0.2447781,-0.023772 -0.3636363,0 -0.9458547,0.1891709 -0.1818182,0.1212121 -0.9090909,0.3636364 -0.057496,0.019165 -0.1243223,-0.019165 -0.1818182,0 -0.1285649,0.042855 -0.2321634,0.1489499 -0.3636364,0.1818182 -0.117593,0.029398 -0.2552209,-0.054208 -0.3636364,0 -0.054208,0.027104 0.054208,0.1547143 0,0.1818181 -0.1454545,0.072727 -0.4,-0.072727 -0.5454545,0 -0.1533226,0.076661 -0.2103138,0.2869751 -0.3636364,0.3636364 -0.054208,0.027104 -0.2246731,-0.042855 -0.1818181,0 0.095827,0.095827 0.2678097,0.085992 0.3636363,0.1818182 0.042855,0.042855 -0.027104,0.1276105 0,0.1818182 0.076661,0.1533225 0.3094287,0.2010132 0.3636364,0.3636363 0.038331,0.114992 -0.038331,0.2486445 0,0.3636364 0.027104,0.081312 0.1212121,0.1212121 0.1818182,0.1818182 0.060606,0.1212121 0.1552406,0.2307488 0.1818181,0.3636363 0.035658,0.1782874 -0.035657,0.3671672 0,0.5454546 0.026578,0.1328876 0.159539,0.229961 0.1818182,0.3636364 0.039854,0.2391258 -0.030069,0.4867205 0,0.7272725 0.442061,1.768244 -0.013613,-0.3043386 0.1818182,1.454546 0.034127,0.307141 0.1510684,0.601593 0.1818182,0.909091 0.030153,0.301526 -0.027435,0.607305 0,0.90909 0.033376,0.367139 0.1512033,0.723531 0.1818182,1.09091 0.030198,0.36238 0,0.727272 0,1.090909 0,0.363636 0,0.727272 0,1.090909 0,0.727272 0,1.454545 0,2.181818 0,0.363636 0.030198,0.728529 0,1.090909 -0.030615,0.367379 -0.1535439,0.723343 -0.1818182,1.090909 -0.032538,0.422993 0,0.848485 0,1.272727 0,0.424243 0,0.848485 0,1.272728 0,1.818181 0,3.636363 0,5.454545 0,3.866052 0.068568,-0.778133 -0.1818182,2.727273 -0.030226,0.423164 0,0.848485 0,1.272727 0,1.333333 0,2.666667 0,4 0,0.909091 0,1.818182 0,2.727273 0,0.424242 -0.032538,0.849734 0,1.272727 0.028274,0.367566 0.1512033,0.72353 0.1818182,1.090909 0.030198,0.36238 0,0.727273 0,1.090909 0.060606,0.363637 0.148442,0.723771 0.1818182,1.090909 0.027435,0.301786 0,0.606061 0,0.909091 0,0.303031 0,0.606061 0,0.909091 0,0.30303 -0.030153,0.607565 0,0.909091 0.03075,0.307498 0.1476913,0.60195 0.1818182,0.909091 0.026771,0.240942 0,0.484848 0,0.727273 0,0.666666 0,1.333333 0,2 0,0.363636 0,0.727272 0,1.090909 0,0.181818 0.035657,0.367167 0,0.545454 -0.026578,0.132888 -0.1552407,0.230749 -0.1818182,0.363637 -0.059429,0.297145 0,0.60606 0,0.909091 0,0.242424 0,0.484848 0,0.727272 0,0.121212 0,0.242425 0,0.363637 0,0.06061 0.019165,0.124322 0,0.181818 -0.042855,0.128565 -0.1389633,0.235071 -0.1818182,0.363636 -0.041687,0.125061 0.053638,0.438178 0,0.545455 -0.2246731,0.449346 -0.1818182,-0.06276 -0.1818182,0.363636 0,0.0441 -0.00585,0.539607 0,0.545455 0.042855,0.04286 0.1389632,-0.04285 0.1818182,0 0.3761883,0.376188 -0.5748655,-0.01471 0.1818182,0.363636 0.054208,0.0271 0.1212121,0 0.1818182,0 0.060606,0 0.1212121,0 0.1818181,0 0.2424243,0 0.4848485,0 0.7272728,0 0.6060606,0 1.2121212,0 1.8181816,0 0.30303,0 0.610184,0.04982 0.909091,0 0.189046,-0.03151 0.356409,-0.150311 0.545455,-0.181818 0.179344,-0.02989 0.363636,0 0.545454,0 0.424243,0 0.851761,0.05262 1.272727,0 0.247956,-0.03099 0.479318,-0.150824 0.727273,-0.181818 0.536951,-0.06712 0.917595,0.06712 1.454546,0 0.247955,-0.03099 0.479317,-0.150824 0.727272,-0.181818 0.240553,-0.03007 0.486332,0.02677 0.727273,0 2.448483,-0.489697 -0.618063,0.06181 1.818182,-0.181819 0.307498,-0.03075 0.601593,-0.151068 0.909091,-0.181818 0.301526,-0.03015 0.607305,0.02743 0.909091,0 0.367138,-0.03338 0.723771,-0.148442 1.090909,-0.181818 0.301786,-0.02743 0.607305,0.02743 0.909091,0 0.367138,-0.03338 0.72353,-0.151203 1.090909,-0.181818 0.36238,-0.0302 0.728529,0.0302 1.090909,0 0.367379,-0.03061 0.72353,-0.151203 1.090909,-0.181818 0.785157,-0.06543 1.578078,0.06043 2.363636,0 0.735133,-0.05655 1.447061,-0.302407 2.181819,-0.363637 0.36238,-0.0302 0.728528,0.0302 1.090909,0 3.656337,-0.304695 -1.764888,-0.06874 2.363636,-0.363636 0.423164,-0.03023 0.848485,0 1.272727,0 0.363637,0 0.727273,0 1.090909,0 1.151516,0 2.303031,0 3.454546,0 0.363636,0 0.728529,0.0302 1.090909,0 0.367379,-0.03061 0.72353,-0.151203 1.090909,-0.181818 0.664364,-0.05536 1.336071,0.06036 2,0 0.367138,-0.03338 0.72353,-0.151204 1.090909,-0.181818 0.36238,-0.0302 0.727273,0 1.090909,0 1.090909,0 2.181818,0 3.272727,0 0.424243,0 0.848485,0 1.272728,0 0.181818,0 0.365463,0.02571 0.545454,0 2.526145,-0.360878 -0.400505,0.0092 1.090909,-0.363637 0.228164,-0.05704 0.499109,0.05704 0.727273,0 0.262946,-0.06574 0.470143,-0.277926 0.727273,-0.363636 0.114992,-0.03833 0.248644,0.03833 0.363636,0 0.128565,-0.04286 0.235072,-0.138963 0.363637,-0.181818 0.0575,-0.01917 0.12761,0.0271 0.181818,0 0.07666,-0.03833 0.105157,-0.143488 0.181818,-0.181819 0.0762,-0.0381 0.715389,0.02377 0.727273,0 0.08131,-0.162623 0,-0.363636 0,-0.545454 0,-0.424243 0,-0.848485 0,-1.272727 0,-0.242425 -0.04754,-0.489557 0,-0.727273 0.03759,-0.187932 0.15031,-0.356409 0.181818,-0.545455 0.04982,-0.298907 -0.05943,-0.611945 0,-0.909091 0.03759,-0.187931 0.15031,-0.356409 0.181818,-0.545454 0.02989,-0.179344 0,-0.363636 0,-0.545455 0,-0.242424 0,-0.484848 0,-0.727272 0,-0.181819 -0.02989,-0.366111 0,-0.545455 0.03151,-0.189045 0.121212,-0.363636 0.181818,-0.545454 0,-0.242425 -0.03007,-0.486721 0,-0.727273 0.03099,-0.247956 0.150824,-0.479317 0.181818,-0.727273 0.06014,-0.481104 -0.05354,-0.972662 0,-1.454545 0.03413,-0.307142 0.151069,-0.601593 0.181819,-0.909091 0.03015,-0.301527 -0.03346,-0.607914 0,-0.909091 0.0276,-0.248357 0.154223,-0.478916 0.181818,-0.727273 0.06693,-0.602354 -0.06031,-1.215129 0,-1.818182 0.03075,-0.307498 0.151068,-0.601593 0.181818,-0.909091 0.03015,-0.301526 -0.02743,-0.607305 0,-0.909091 0.03338,-0.367138 0.148442,-0.72377 0.181818,-1.090909 0.02743,-0.301785 -0.03015,-0.607564 0,-0.909091 0.03075,-0.307497 0.15384,-0.601328 0.181818,-0.90909 0.03292,-0.362143 -0.03618,-0.729078 0,-1.09091 0.02486,-0.248645 0.156954,-0.478627 0.181818,-0.727272 0.03618,-0.361832 0,-0.727273 0,-1.090909 0,-1.151516 0,-2.303031 0,-3.454546 0,-0.545454 0,-1.090909 0,-1.636363 0,-0.242425 0.03007,-0.486721 0,-0.727273 -0.03099,-0.247956 -0.154223,-0.478916 -0.181818,-0.727273 -0.03346,-0.301177 0,-0.606061 0,-0.909091 0,-0.787879 0,-1.575757 0,-2.363636 0,-0.242424 0.02677,-0.486331 0,-0.727273 -0.03413,-0.307141 -0.147691,-0.601949 -0.181818,-0.909091 -0.02677,-0.240941 0,-0.484848 0,-0.727273 0,-0.30303 0,-0.60606 0,-0.90909 0,-0.181819 0.02571,-0.365464 0,-0.545455 -0.03534,-0.247374 -0.150824,-0.479317 -0.181818,-0.727273 -0.05262,-0.420966 0,-0.848485 0,-1.272727 0,-0.787879 0,-1.575758 0,-2.363636 0,-0.666667 0,-1.333334 0,-2 0,-0.189078 -0.03575,-0.947888 0,-1.090909 0.03287,-0.131473 0.14895,-0.232164 0.181818,-0.363637 0.0294,-0.117593 0,-0.2424241 0,-0.3636362 0,-0.3030303 0,-0.6060606 0,-0.9090909 0,-0.060606 0.04285,-0.1389632 0,-0.1818182 -0.04286,-0.042855 -0.138963,0.042855 -0.181818,0 -0.04285,-0.042855 0.0271,-0.1276104 0,-0.1818182 C 56.8,8.3272727 56.472727,8.2181818 56.363636,8 c -0.05421,-0.1084154 0.08571,-0.2779265 0,-0.3636364 -0.04286,-0.042855 -0.138963,0.042855 -0.181818,0 -0.04286,-0.042855 0.0271,-0.1276104 0,-0.1818181 C 55.578803,6.8515305 56.267528,7.6259653 56,7.0909091 55.961669,7.0142478 55.856512,6.9857522 55.818182,6.9090909 c -0.0271,-0.054208 0.0271,-0.1276105 0,-0.1818182 -0.03833,-0.076661 -0.143488,-0.1051569 -0.181818,-0.1818182 -0.0271,-0.054208 -0.01,-0.1220367 0,-0.1818181 0.0508,-0.3048268 0.121212,-0.6060606 0.181818,-0.9090909 z"
       id="path2993"
       inkscape:connector-curvature="0" />
    <path
       style="fill:none;stroke:#000000;stroke-width:1px;stroke-linecap:butt;stroke-linejoin:miter;stroke-opacity:1"
       d="m 50.545455,46.363636 c -0.666667,-0.181818 -1.324324,-0.400666 -2,-0.545454 -0.177783,-0.0381 -0.363637,0 -0.545455,0 -0.181818,0 -0.363636,0 -0.545455,0 -0.545454,0 -1.090909,0 -1.636363,0 -0.545455,0 -1.090909,0 -1.636364,0 -0.181818,0 -0.363636,0 -0.545454,0 -0.181819,0 -0.366111,-0.02989 -0.545455,0 -0.189045,0.03151 -0.355727,0.154714 -0.545454,0.181818 -0.239988,0.03428 -0.488147,-0.03985 -0.727273,0 -0.133676,0.02228 -0.229961,0.159539 -0.363637,0.181818 -0.239125,0.03985 -0.487285,-0.03428 -0.727272,0 -0.318649,0.04552 -0.77226,0.318115 -1.090909,0.363637 -0.239988,0.03428 -0.484849,0 -0.727273,0 -0.424243,0 -0.848485,0 -1.272727,0 -0.242425,0 -0.486721,-0.03007 -0.727273,0 -0.247956,0.03099 -0.479317,0.150823 -0.727273,0.181818 -0.481104,0.06014 -0.973441,-0.06014 -1.454545,0 -0.247956,0.03099 -0.478916,0.154223 -0.727273,0.181818 -0.542118,0.06024 -1.095121,-0.06765 -1.636364,0 -0.495911,0.06199 -0.958634,0.301647 -1.454545,0.363636 -0.240552,0.03007 -0.487285,-0.03428 -0.727273,0 -0.189727,0.0271 -0.363636,0.121212 -0.545454,0.181818 -0.242425,0.06061 -0.479318,0.150824 -0.727273,0.181819 -0.240552,0.03007 -0.486721,-0.03007 -0.727273,0 -0.505238,0.06315 -0.803106,0.229458 -1.272727,0.363636 -0.240271,0.06865 -0.484849,0.121212 -0.727273,0.181818 -0.242424,0.06061 -0.479317,0.150824 -0.727273,0.181818 -0.240552,0.03007 -0.494176,-0.0666 -0.727272,0 -0.210111,0.06003 -0.335344,0.303605 -0.545455,0.363637 -0.918926,0 -0.497289,-0.07666 -1.272727,0.181818 -0.181818,0.06061 -0.363636,0.121212 -0.545455,0.181818 -0.181818,0.06061 -0.355727,0.154714 -0.545454,0.181818 -0.239988,0.03428 -0.487285,-0.03428 -0.727273,0 -0.189727,0.0271 -0.356409,0.150311 -0.545454,0.181818 -0.179345,0.02989 -0.363637,0 -0.545455,0 -0.545455,0 -1.090909,0 -1.636364,0 -0.181818,0 -0.36611,-0.02989 -0.545454,0 -1.435885,0.239315 0.327298,0.181819 -1.090909,0.181819 -0.921372,0 0.216831,-0.05421 -0.727273,0.181818 -0.143021,0.03576 -0.901832,0 -1.090909,0 -0.121212,0 -0.246043,-0.0294 -0.363636,0 -0.131473,0.03287 -0.232164,0.14895 -0.363637,0.181818 -0.117593,0.0294 -0.248644,-0.03833 -0.363636,0 -0.08131,0.0271 -0.105157,0.143488 -0.181818,0.181818 -0.145455,0.07273 -0.4,-0.07273 -0.545455,0 -0.07666,0.03833 -0.105157,0.143488 -0.181818,0.181818 -0.05421,0.0271 -0.242424,0 -0.181818,0 0.121212,0 0.242424,0 0.363636,0"
       id="path2995"
       inkscape:connector-curvature="0" />
  </g>
</svg>
