<?xml version="1.0" encoding="UTF-8" standalone="no"?>
<!-- Created with Inkscape (http://www.inkscape.org/) -->

<svg
   xmlns:dc="http://purl.org/dc/elements/1.1/"
   xmlns:cc="http://creativecommons.org/ns#"
   xmlns:rdf="http://www.w3.org/1999/02/22-rdf-syntax-ns#"
   xmlns:svg="http://www.w3.org/2000/svg"
   xmlns="http://www.w3.org/2000/svg"
   xmlns:sodipodi="http://sodipodi.sourceforge.net/DTD/sodipodi-0.dtd"
   xmlns:inkscape="http://www.inkscape.org/namespaces/inkscape"
   width="64px"
   height="64px"
   id="svg2985"
   version="1.1"
   inkscape:version="0.48.4 r9939"
   sodipodi:docname="minimize.svg">
  <defs
     id="defs2987" />
  <sodipodi:namedview
     id="base"
     pagecolor="#ffffff"
     bordercolor="#666666"
     borderopacity="1.0"
     inkscape:pageopacity="0.0"
     inkscape:pageshadow="2"
     inkscape:zoom="5.5"
     inkscape:cx="32"
     inkscape:cy="32"
     inkscape:current-layer="layer1"
     showgrid="true"
     inkscape:document-units="px"
     inkscape:grid-bbox="true"
     inkscape:window-width="1280"
     inkscape:window-height="660"
     inkscape:window-x="-8"
     inkscape:window-y="-8"
     inkscape:window-maximized="1" />
  <metadata
     id="metadata2990">
    <rdf:RDF>
      <cc:Work
         rdf:about="">
        <dc:format>image/svg+xml</dc:format>
        <dc:type
           rdf:resource="http://purl.org/dc/dcmitype/StillImage" />
        <dc:title></dc:title>
      </cc:Work>
    </rdf:RDF>
  </metadata>
  <g
     id="layer1"
     inkscape:label="Layer 1"
     inkscape:groupmode="layer">
    <path
       style="fill:none;stroke:#000000;stroke-width:1px;stroke-linecap:butt;stroke-linejoin:miter;stroke-opacity:1"
       d="m 46.545455,8.1818182 c -1.343347,-0.1447261 -2.192251,-1.579235 -3.454546,-2 -0.114992,-0.038331 -0.251094,0.045017 -0.363636,0 -0.202889,-0.081156 -0.342566,-0.2824807 -0.545455,-0.3636364 -0.112542,-0.045017 -0.255221,0.054208 -0.363636,0 -0.153323,-0.076661 -0.210314,-0.2869751 -0.363637,-0.3636363 -0.108415,-0.054208 -0.246043,0.029398 -0.363636,0 -0.262946,-0.065736 -0.464327,-0.2978999 -0.727273,-0.3636364 -0.117593,-0.029398 -0.244778,0.023772 -0.363636,0 -0.327193,-0.065439 -0.763716,-0.2981978 -1.090909,-0.3636364 -0.118858,-0.023772 -0.244074,0.019927 -0.363636,0 -0.246486,-0.041081 -0.490211,-0.1027975 -0.727273,-0.1818182 -0.128565,-0.042855 -0.229961,-0.1595389 -0.363637,-0.1818181 -0.353808,-0.058968 -0.7371,0.058968 -1.090909,0 -0.246485,-0.041081 -0.480787,-0.1407373 -0.727272,-0.1818182 -0.119563,-0.019927 -0.244074,0.019927 -0.363637,0 C 35.026242,4.1407373 34.79194,4.0410809 34.545455,4 34.425892,3.9800729 34.30303,4 34.181818,4 33.939394,4 33.69697,4 33.454545,4 33.333333,4 33.210472,3.980073 33.090909,4 32.844424,4.041081 32.61101,4.1464791 32.363636,4.1818182 c -0.17999,0.025713 -0.36611,-0.029891 -0.545454,0 -0.508034,0.084672 -1.12833,0.4607822 -1.636364,0.5454545 -0.179344,0.029891 -0.36611,-0.029891 -0.545454,0 -0.324762,0.054127 -0.766148,0.3095095 -1.090909,0.3636364 -0.179345,0.029891 -0.372967,-0.057496 -0.545455,0 -0.207305,0.069101 -0.33815,0.2945348 -0.545455,0.3636364 -0.172487,0.057496 -0.36611,-0.029891 -0.545454,0 C 26.720045,5.486053 26.545455,5.5757576 26.363636,5.6363636 26.181818,5.6969697 26,5.7575758 25.818182,5.8181818 25.636364,5.8787879 25.454545,5.9393939 25.272727,6 c -0.181818,0.060606 -0.381113,0.083213 -0.545454,0.1818182 -0.146992,0.088195 -0.210314,0.2869751 -0.363637,0.3636363 -1.79376,0.44844 0.06695,-0.1492578 -1.090909,0.5454546 -0.739385,0.4436314 -0.401237,-0.1442171 -1.090909,0.5454545 -0.154516,0.1545158 -0.223744,0.3775842 -0.363636,0.5454546 -0.647846,0.7774153 -0.375807,0.337009 -1.090909,0.9090909 -0.611229,0.4889833 -0.201886,0.3837041 -0.909091,1.0909089 -0.154516,0.154516 -0.405563,0.195766 -0.545455,0.363637 -0.173514,0.208217 -0.213291,0.501755 -0.363636,0.727272 -0.09509,0.14263 -0.26855,0.221007 -0.363636,0.363637 -0.150346,0.225517 -0.229164,0.491945 -0.363637,0.727272 -0.279888,0.489804 -0.447385,0.601106 -0.727273,1.090909 -0.134472,0.235328 -0.229163,0.491946 -0.363636,0.727273 -0.216831,0.379454 -0.510442,0.711455 -0.727273,1.090909 C 16.229164,15.508055 16.134473,15.764673 16,16 c -0.189551,0.331715 -0.537721,0.759194 -0.727273,1.090909 -0.134473,0.235327 -0.242424,0.484849 -0.363636,0.727273 -0.337969,0.675937 -0.389304,0.778608 -0.727273,1.454545 -0.121212,0.242425 -0.242424,0.484849 -0.363636,0.727273 -0.121212,0.242424 -0.268469,0.473491 -0.363637,0.727273 -0.08774,0.233975 -0.09408,0.493298 -0.181818,0.727272 -0.09517,0.253782 -0.277926,0.470143 -0.363636,0.727273 -0.09772,0.293173 -0.09302,0.613093 -0.181818,0.909091 -0.09378,0.312609 -0.292836,0.590489 -0.363637,0.909091 -0.05259,0.236651 0.0588,0.492087 0,0.727273 C 12.2979,24.990219 12.058797,25.189961 12,25.454545 c -0.06574,0.295815 0.05943,0.611946 0,0.909091 -0.06401,0.320036 -0.292836,0.59049 -0.363636,0.909091 -0.0037,0.01663 0.0036,1.418103 0,1.454546 0.07655,0.643072 -0.295383,1.203899 -0.363637,1.818182 -0.03346,0.301176 0,0.60606 0,0.90909 0,0.303031 0,0.606061 0,0.909091 0,0.848485 0,1.69697 0,2.545455 0,0.787879 0,1.575757 0,2.363636 0,0.303031 -0.03346,0.607914 0,0.909091 0.02759,0.248357 0.154223,0.478916 0.181818,0.727273 0.03346,0.301177 -0.03015,0.607564 0,0.909091 0.03075,0.307498 0.147692,0.601949 0.181819,0.909091 0.02677,0.240941 -0.02677,0.486331 0,0.727272 0.03413,0.307142 0.121212,0.606061 0.181818,0.909091 0.230825,1.154124 0.106867,0.609287 0.363636,1.636364 0.121212,0.484848 0.242424,0.969697 0.363637,1.454545 0.06061,0.242425 0.09408,0.493298 0.181818,0.727273 0.190336,0.507563 0.536936,0.946983 0.727272,1.454546 0.08774,0.233974 0.11317,0.487002 0.181819,0.727272 0.1457,0.509953 0.268398,0.787879 0.545454,1.272728 0.108416,0.189727 0.255221,0.355727 0.363637,0.545454 0.134472,0.235328 0.229163,0.491946 0.363636,0.727273 0.216831,0.379454 0.510442,0.711455 0.727273,1.090909 1.318287,2.636575 -0.383307,-0.57496 0.727272,1.090909 0.150345,0.225518 0.213292,0.501755 0.363637,0.727273 0.190173,0.28526 0.550883,0.43329 0.727272,0.727273 0.0986,0.164341 0.08321,0.381113 0.181819,0.545454 0.176389,0.293983 0.521569,0.453001 0.727272,0.727273 0.08131,0.108415 0.100507,0.255221 0.181819,0.363636 0.102851,0.137136 0.242424,0.242424 0.363636,0.363637 0.121212,0.121212 0.2265,0.260784 0.363636,0.363636 0.108416,0.08131 0.255221,0.100507 0.363637,0.181818 0.274271,0.205704 0.453001,0.521569 0.727272,0.727273 0.108416,0.08131 0.255221,0.100506 0.363637,0.181818 0.205704,0.154278 0.331509,0.402825 0.545454,0.545455 0.225518,0.150345 0.484849,0.242424 0.727273,0.363636 0.121212,0.06061 0.242424,0.121212 0.363636,0.181818 0.121212,0.06061 0.232164,0.14895 0.363637,0.181818 0.176389,0.0441 0.372966,-0.0575 0.545454,0 0.128565,0.04285 0.232164,0.14895 0.363637,0.181818 0.235186,0.0588 0.489556,-0.04754 0.727272,0 0.187932,0.03759 0.353802,0.181819 0.545455,0.181819 0.135519,0 0.232163,-0.14895 0.363636,-0.181819 0.117593,-0.0294 0.242425,0 0.363637,0 0.181818,0 0.363636,0 0.545454,0 0.121212,0 0.246044,0.0294 0.363637,0 0.131473,-0.03287 0.230748,-0.15524 0.363636,-0.181818 0.191998,-0.0384 1.009783,0 1.272727,0 0.181818,0 0.367167,0.03566 0.545455,0 0.132887,-0.02658 0.232163,-0.14895 0.363636,-0.181818 0.117593,-0.0294 0.244778,0.02377 0.363636,0 0.187932,-0.03759 0.357524,-0.144232 0.545455,-0.181818 0.118858,-0.02377 0.244778,0.02377 0.363636,0 0.187932,-0.03759 0.367509,-0.11064 0.545455,-0.181818 0.125826,-0.05033 0.230749,-0.155241 0.363636,-0.181818 0.178288,-0.03566 0.36611,0.02989 0.545455,0 1.596032,-0.266006 -0.277927,-0.06688 0.909091,-0.363637 0.293982,-0.0735 0.611945,0.05943 0.909091,0 C 33.769251,58.155241 33.874174,58.050331 34,58 c 0.177946,-0.07118 0.357523,-0.144232 0.545455,-0.181818 0.237716,-0.04754 0.492086,0.0588 0.727272,0 0.131473,-0.03287 0.242425,-0.121212 0.363637,-0.181818 0.242424,-0.121212 0.475619,-0.262976 0.727272,-0.363637 0.177946,-0.07118 0.381114,-0.08321 0.545455,-0.181818 0.293982,-0.176389 0.43329,-0.550883 0.727273,-0.727273 0.164341,-0.0986 0.381113,-0.08321 0.545454,-0.181818 0.146991,-0.08819 0.242424,-0.242424 0.363637,-0.363636 0.363636,-0.363637 0.727272,-0.727273 1.090909,-1.090909 0.181818,-0.181818 0.363636,-0.363637 0.545454,-0.545455 0.121212,-0.121212 0.22978,-0.256551 0.363637,-0.363636 0.170634,-0.136507 0.390938,-0.209121 0.545454,-0.363637 0.154516,-0.154515 0.242424,-0.363636 0.363636,-0.545454 0.242425,-0.363636 0.447489,-0.755168 0.727273,-1.090909 0.295274,-0.354329 0.795635,-0.73658 1.090909,-1.090909 0.402701,-0.483242 0.403939,-0.706892 0.727273,-1.272728 0.108415,-0.189727 0.242424,-0.363636 0.363636,-0.545454 0.242425,-0.363636 0.484849,-0.727273 0.727273,-1.090909 0.121212,-0.181818 0.255221,-0.355728 0.363636,-0.545455 0.134473,-0.235327 0.213292,-0.501755 0.363637,-0.727272 0.09509,-0.14263 0.26855,-0.221007 0.363636,-0.363637 0.482412,-0.723618 0.254546,-0.593939 0.545455,-1.272727 0.106767,-0.249124 0.256869,-0.478149 0.363636,-0.727273 0.0755,-0.176157 0.106322,-0.369297 0.181818,-0.545454 0.106768,-0.249124 0.268469,-0.473492 0.363637,-0.727273 0.08774,-0.233975 0.121212,-0.484849 0.181818,-0.727273 0.18137,-0.725482 0.340028,-1.462825 0.545454,-2.181818 0.05265,-0.184279 0.129167,-0.361175 0.181819,-0.545455 0.06865,-0.24027 0.113169,-0.487002 0.181818,-0.727272 0.05265,-0.184279 0.129167,-0.361176 0.181818,-0.545455 C 49.114923,37.461407 49.248714,36.720412 49.454545,36 49.507197,35.815721 49.583712,35.638825 49.636364,35.454545 49.773661,34.974004 49.862703,34.480541 50,34 50.05265,33.815721 50.129167,33.638825 50.181818,33.454545 50.319116,32.974004 50.408157,32.480541 50.545455,32 c 0.105302,-0.368558 0.258334,-0.722351 0.363636,-1.090909 0.06865,-0.240271 0.113169,-0.487002 0.181818,-0.727273 0.05265,-0.184279 0.150311,-0.356409 0.181818,-0.545454 0.285261,-1.711562 -0.43615,0.890162 0.181818,-1.272728 C 51.627864,27.757021 51.909965,27.1757 52,26.545455 c 0.05143,-0.359982 -0.05978,-0.732221 0,-1.09091 0.03151,-0.189045 0.150311,-0.356409 0.181818,-0.545454 0.02989,-0.179344 0,-0.363636 0,-0.545455 0.06061,-0.242424 0.140737,-0.480787 0.181818,-0.727272 0.01993,-0.119563 0,-0.242425 0,-0.363637 0,-0.181818 0,-0.363636 0,-0.545454 0,-0.666667 0,-1.333334 0,-2 0,-0.545455 0,-1.090909 0,-1.636364 0,-0.181818 0.03566,-0.367167 0,-0.545454 -0.02658,-0.132888 -0.15524,-0.230749 -0.181818,-0.363637 -0.03566,-0.178287 0.02989,-0.36611 0,-0.545454 C 52.150311,17.447318 52.037586,17.278841 52,17.090909 51.95246,16.853193 52.0588,16.598822 52,16.363636 51.967132,16.232163 51.878788,16.121212 51.818182,16 c -0.06061,-0.181818 -0.144232,-0.357523 -0.181818,-0.545455 -0.02377,-0.118858 0.02377,-0.244778 0,-0.363636 -0.120603,-0.603015 -0.169697,-0.424242 -0.363637,-0.909091 -0.142356,-0.355891 -0.22128,-0.735018 -0.363636,-1.090909 -0.05033,-0.125826 -0.131488,-0.23781 -0.181818,-0.363636 -0.07118,-0.177946 -0.08321,-0.381114 -0.181818,-0.545455 -0.08819,-0.146991 -0.286976,-0.210314 -0.363637,-0.363636 -0.05421,-0.108416 0,-0.242424 0,-0.363637 -0.121212,-0.121212 -0.286975,-0.210313 -0.363636,-0.363636 -0.05421,-0.108415 0.06724,-0.262782 0,-0.363636 -0.07517,-0.112759 -0.26781,-0.08599 -0.363637,-0.181818 C 49.442895,10.533804 49.113487,9.8520494 49.090909,9.8181818 48.995822,9.6755519 48.822359,9.5971754 48.727273,9.4545455 48.704694,9.4206779 48.375287,8.7389236 48.363636,8.7272727 47.922036,8.2856724 48.09665,8.7813394 47.818182,8.3636364 47.743009,8.2508775 47.770521,8.0191653 47.636364,8 47.271417,7.947865 46.852192,8.3863097 46.545455,8.1818182 c -0.252137,-0.168091 0.04286,-0.6091062 0,-0.9090909 -0.01917,-0.1341573 -0.08599,-0.2678098 -0.181819,-0.3636364 -0.04286,-0.042855 -0.131391,0.033618 -0.181818,0 C 45.914278,6.7307305 45.722086,6.3601786 45.454545,6.1818182 45.341787,6.1066456 45.203668,6.0751726 45.090909,6 45.019594,5.9524567 44.985752,5.8565125 44.909091,5.8181818 c -0.05421,-0.027104 -0.131391,0.033618 -0.181818,0 -0.14263,-0.095087 -0.221007,-0.2685497 -0.363637,-0.3636363 -0.05043,-0.033618 -0.12761,0.027104 -0.181818,0 C 44.105157,5.4162148 44.071315,5.3202706 44,5.2727273 43.774482,5.1223821 43.498245,5.059436 43.272727,4.9090909 43.201412,4.8615476 43.151515,4.7878788 43.090909,4.7272727 42.909091,4.5454545 42.727273,4.3636364 42.545455,4.1818182"
       id="path3032"
       inkscape:connector-curvature="0" />
    <path
       style="fill:none;stroke:#000000;stroke-width:1px;stroke-linecap:butt;stroke-linejoin:miter;stroke-opacity:1"
       d="M 50.181818,26.181818 C 49.454545,26 48.727273,25.818182 48,25.636364 c -0.06061,-0.06061 -0.105157,-0.143488 -0.181818,-0.181819 -0.05421,-0.0271 -0.121212,0 -0.181818,0 -0.121212,0 -0.248645,0.03833 -0.363637,0 -0.08131,-0.0271 -0.100506,-0.154714 -0.181818,-0.181818 -0.114992,-0.03833 -0.248644,0.03833 -0.363636,0 -0.08131,-0.0271 -0.100507,-0.154714 -0.181818,-0.181818 -0.229984,-0.07666 -0.492087,0.0588 -0.727273,0 -0.32908,0.109587 -0.33815,-0.294535 -0.545455,-0.363636 -0.114992,-0.03833 -0.248644,0.03833 -0.363636,0 -0.08131,-0.0271 -0.121212,-0.121212 -0.181818,-0.181818 -0.121212,-0.06061 -0.232164,-0.14895 -0.363637,-0.181819 -0.117593,-0.0294 -0.255221,0.05421 -0.363636,0 C 43.846677,24.286975 43.789686,24.076661 43.636364,24 c -0.108416,-0.05421 -0.246044,0.0294 -0.363637,0 -0.294761,-0.07369 -0.432511,-0.289946 -0.727272,-0.363636 -0.117593,-0.0294 -0.246044,0.0294 -0.363637,0 -0.262946,-0.06574 -0.464327,-0.2979 -0.727273,-0.363637 -0.235186,-0.0588 -0.497288,0.07666 -0.727272,0 -0.08131,-0.0271 -0.100507,-0.154714 -0.181818,-0.181818 -0.114992,-0.03833 -0.246044,0.0294 -0.363637,0 -0.131473,-0.03287 -0.232163,-0.14895 -0.363636,-0.181818 -0.117593,-0.0294 -0.246044,0.0294 -0.363637,0 -0.131473,-0.03287 -0.232163,-0.14895 -0.363636,-0.181818 -0.117593,-0.0294 -0.246043,0.0294 -0.363636,0 -0.131473,-0.03287 -0.232164,-0.14895 -0.363637,-0.181818 -0.315681,-0.07892 -0.775228,0.07892 -1.090909,0 -0.131473,-0.03287 -0.232163,-0.14895 -0.363636,-0.181819 -0.117593,-0.0294 -0.242424,0 -0.363636,0 -0.181819,0 -0.363637,0 -0.545455,0 -0.121212,0 -0.246043,0.0294 -0.363636,0 -0.944104,-0.236026 0.194098,-0.181818 -0.727273,-0.181818 -0.189077,0 -0.947888,0.03576 -1.090909,0 C 33.686709,22.14895 33.586018,22.032868 33.454545,22 c -0.117593,-0.0294 -0.242424,0 -0.363636,0 -0.181818,0 -0.363636,0 -0.545454,0 -0.484849,0 -0.969697,0 -1.454546,0 -0.121212,0 -0.242424,0 -0.363636,0 -0.121212,0 -0.246044,0.0294 -0.363637,0 C 30.232163,21.967132 30.131473,21.85105 30,21.818182 c -0.117593,-0.0294 -0.242424,0 -0.363636,0 -0.303031,0 -0.606061,0 -0.909091,0 -0.727273,0 -1.454546,0 -2.181818,0 -0.189078,0 -0.947888,0.03575 -1.09091,0 -0.131473,-0.03287 -0.232163,-0.14895 -0.363636,-0.181818 -0.143021,-0.03576 -0.901832,0 -1.090909,0 -0.121212,0 -0.246043,0.0294 -0.363636,0 -0.131473,-0.03287 -0.232164,-0.14895 -0.363637,-0.181819 -0.117593,-0.0294 -0.242424,0 -0.363636,0 -0.121212,0 -0.242424,0 -0.363636,0 -0.242425,0 -0.484849,0 -0.727273,0 -0.121212,0 -0.242424,0 -0.363637,0 -0.06061,0 -0.124322,-0.01917 -0.181818,0 -0.128565,0.04285 -0.235071,0.138964 -0.363636,0.181819 -0.129983,0.04333 -1.068556,0 -1.272727,0 -0.06061,0 -0.121212,0 -0.181819,0 -0.06061,0 -0.12761,-0.0271 -0.181818,0 -0.07666,0.03833 -0.105157,0.143487 -0.181818,0.181818 -0.118127,0.05906 -0.972782,-0.05906 -1.090909,0 -0.603015,0.603015 0.17142,-0.08571 -0.363636,0.181818 -0.07666,0.03833 -0.100507,0.154714 -0.181819,0.181818 -0.150585,0.05019 -0.793465,-0.05781 -0.90909,0 -0.07666,0.03833 -0.105157,0.143488 -0.181819,0.181818 -0.09697,0.04848 -0.266666,-0.04848 -0.363636,0 -0.07666,0.03833 -0.105157,0.143488 -0.181818,0.181819 -0.118114,0.05906 -0.793761,-0.05767 -0.909091,0 -0.07666,0.03833 -0.105157,0.143487 -0.181818,0.181818 -0.05421,0.0271 -0.121212,0 -0.181818,0 -0.121213,0 -0.246044,-0.0294 -0.363637,0 -0.131473,0.03287 -0.235071,0.138963 -0.363636,0.181818 -0.146346,0.04878 -0.611087,-0.05809 -0.727273,0 -0.07666,0.03833 -0.09611,0.181818 -0.181818,0.181818 -0.624495,0 0.443261,-0.659144 -0.545455,0 -0.07132,0.04754 -0.105157,0.143488 -0.181818,0.181818 -0.05421,0.0271 -0.121212,0 -0.181818,0 -0.267528,0 -0.138963,0.04285 -0.363636,-0.181818"
       id="path3034"
       inkscape:connector-curvature="0" />
    <path
       style="fill:none;stroke:#000000;stroke-width:1px;stroke-linecap:butt;stroke-linejoin:miter;stroke-opacity:1"
       d="m 34,4.1818182 c 0,5.1991274 0.243935,0.2969885 -0.181818,2 -0.0294,0.117593 0.03833,0.2486444 0,0.3636363 -0.05421,0.1626232 -0.309429,0.2010133 -0.363637,0.3636364 -0.03833,0.1149919 0.03833,0.2486445 0,0.3636364 -0.05421,0.1626231 -0.268549,0.2210064 -0.363636,0.3636363 C 33.015737,7.7491225 32.984263,7.8872412 32.909091,8 32.814004,8.1426299 32.640541,8.2210064 32.545455,8.3636364 32.395109,8.5891541 32.30303,8.8484848 32.181818,9.0909091 32,9.4545455 31.818182,9.8181818 31.636364,10.181818 c -0.181819,0.363637 -0.363637,0.727273 -0.545455,1.090909 -0.06061,0.121212 -0.14895,0.232164 -0.181818,0.363637 -0.0294,0.117593 0.02377,0.244778 0,0.363636 0.04172,0.365117 -0.284479,0.592462 -0.363636,0.909091 -0.0735,0.293982 0.05943,0.611945 0,0.909091 -0.02658,0.132887 -0.14895,0.232163 -0.181819,0.363636 -0.0294,0.117593 0.0294,0.246044 0,0.363637 -0.03287,0.131473 -0.15524,0.230748 -0.181818,0.363636 -0.05943,0.297146 0,0.606061 0,0.909091 0,0.545454 0,1.090909 0,1.636363 0,0.363637 0,0.727273 0,1.09091 0,0.121212 -0.05421,0.25522 0,0.363636 0.0271,0.05421 0.138963,-0.04285 0.181818,0 0.08571,0.08571 -0.08571,0.277926 0,0.363636 0.08081,0.08081 0.343435,-0.141414 0.181819,0.181818 -0.07666,0.153323 -0.286976,0.210314 -0.363637,0.363637 -0.0271,0.05421 0.04285,0.138963 0,0.181818 -0.0058,0.0058 -0.501359,0 -0.545454,0 -0.06061,0 -0.138964,0.04285 -0.181819,0 -0.04285,-0.04285 -0.06061,-0.181818 0,-0.181818 0.01335,0 -0.01668,0.512093 0,0.545454 0.03833,0.07666 0.143488,0.105157 0.181819,0.181819 0.0271,0.05421 -0.04285,0.138963 0,0.181818 0.04285,0.04285 0.138963,-0.04285 0.181818,0 0.04375,0.04375 -0.04375,0.683521 0,0.727272 0.04285,0.04285 0.181818,-0.06061 0.181818,0 0,0.08571 -0.143488,0.105157 -0.181818,0.181819 -0.0271,0.05421 0,0.121212 0,0.181818"
       id="path3036"
       inkscape:connector-curvature="0" />
    <path
       style="fill:none;stroke:#000000;stroke-width:1px;stroke-linecap:butt;stroke-linejoin:miter;stroke-opacity:1"
       d="m 51.818182,27.272727 c -0.30303,-0.363636 -0.574383,-0.756201 -0.909091,-1.090909 -0.04285,-0.04285 -0.121212,0 -0.181818,0 -0.09713,0 -0.857054,0.02602 -0.909091,0 C 49.741521,26.143488 49.713025,26.038331 49.636364,26 c -0.05421,-0.0271 -0.127611,0.0271 -0.181819,0 -0.07666,-0.03833 -0.105156,-0.143488 -0.181818,-0.181818 -0.05421,-0.0271 -0.12761,0.0271 -0.181818,0 -0.153322,-0.07666 -0.201013,-0.309429 -0.363636,-0.363637 -0.114992,-0.03833 -0.248645,0.03833 -0.363637,0 C 48.201013,25.400338 48.162623,25.145117 48,25.090909 c -0.114992,-0.03833 -0.248644,0.03833 -0.363636,0 -0.162623,-0.05421 -0.221007,-0.26855 -0.363637,-0.363636 -0.121212,-0.06061 -0.242424,-0.121212 -0.363636,-0.181818 -0.06061,0 -0.127611,0.0271 -0.181818,0 -0.07666,-0.03833 -0.100507,-0.154715 -0.181818,-0.181819 -0.114992,-0.03833 -0.242425,0 -0.363637,0 -0.121212,0 -0.242424,0 -0.363636,0"
       id="path3038"
       inkscape:connector-curvature="0" />
    <path
       style="fill:none;stroke:#000000;stroke-width:1px;stroke-linecap:butt;stroke-linejoin:miter;stroke-opacity:1"
       d="m 45.090909,7.4545455 c -1.107888,2.5735155 1.858752,1.9464046 2.545455,3.0909095 0.0986,0.164341 0.09611,0.374034 0.181818,0.545454 0.37308,0.74616 0.276304,0.345381 0.727273,0.909091 0.273014,0.341268 0.454258,0.749641 0.727272,1.090909 0.107085,0.133856 0.275442,0.216645 0.363637,0.363636 0.0986,0.164342 0.08321,0.381114 0.181818,0.545455 0.08819,0.146991 0.256551,0.22978 0.363636,0.363636 0.78902,-0.259903 0.25498,0.564289 0.363637,0.727273 0.09509,0.14263 0.268549,0.221007 0.363636,0.363636 0.03362,0.05043 0,0.121213 0,0.181819 0.121212,0.121212 0.26855,0.221006 0.363636,0.363636 0.06724,0.100855 -0.08571,0.277926 0,0.363636 0.04285,0.04285 0.138963,-0.04285 0.181818,0 0.03717,0.03717 -0.03604,0.473365 0,0.545455 0.03833,0.07666 0.143488,0.105157 0.181819,0.181818 0.05421,0.108416 -0.03833,0.248645 0,0.363636 0.04286,0.128565 0.317337,0.363637 0.181818,0.363637 -0.278343,0 -0.430164,-0.573551 -0.545455,-0.727273 -0.102852,-0.137136 -0.260784,-0.2265 -0.363636,-0.363636 C 50.746468,16.510442 50.684903,16.232414 50.545455,16 50.433028,15.812622 50.30303,15.636364 50.181818,15.454545 50.060606,15.272727 49.954689,15.079725 49.818182,14.909091 49.711097,14.775235 49.561631,14.679311 49.454545,14.545455 49.318038,14.37482 49.230801,14.16787 49.090909,14 48.926299,13.802467 48.694908,13.663781 48.545455,13.454545 48.387917,13.233992 48.339356,12.947826 48.181818,12.727273 48.032365,12.518038 47.800974,12.379351 47.636364,12.181818 47.436045,11.941435 47.10941,11.331292 46.909091,11.090909 46.626971,10.752365 46.100302,10.338544 45.818182,10 45.67829,9.8321296 45.591053,9.6251795 45.454545,9.4545455 45.34746,9.3206891 45.197994,9.2247655 45.090909,9.0909091 44.954402,8.920275 44.867165,8.7133249 44.727273,8.5454545 44.562662,8.347922 44.363636,8.1818182 44.181818,8 44.060606,7.8787879 43.952038,7.7434488 43.818182,7.6363636 43.647548,7.4998564 43.443361,7.4092345 43.272727,7.2727273 43.138871,7.1656422 43.046227,7.0119428 42.909091,6.9090909 42.69226,6.7464678 42.398649,6.7080777 42.181818,6.5454545 41.976114,6.3911767 41.850309,6.1426299 41.636364,6 41.523605,5.9248274 41.385486,5.8933544 41.272727,5.8181818 41.130097,5.7230952 41.062413,5.5312067 40.909091,5.4545455 c -0.05421,-0.027104 -0.127611,0.027104 -0.181818,0 -0.04734,-0.023668 -0.221505,-0.3239502 -0.363637,-0.1818182 -0.04286,0.042855 -0.04286,0.1389632 0,0.1818182 0.376189,0.3761882 -0.0147,-0.5748656 0.363637,0.1818181 0.0271,0.054208 -0.0271,0.1276105 0,0.1818182 0.03833,0.076661 0.121212,0.1212121 0.181818,0.1818182 0.06061,0.060606 0.110503,0.1342749 0.181818,0.1818182 0.26496,0.1766401 0.378703,0.1135089 0.545455,0.3636363 0.566489,0.8497348 -0.356043,-0.217781 0.545454,0.909091 0.107085,0.1338563 0.242424,0.2424242 0.363637,0.3636363 C 42.666667,8 42.78208,8.1858207 42.909091,8.3636364 c 0.476103,0.6665448 1.046749,1.286356 1.454545,1.9999996 0.134473,0.235328 0.242425,0.484849 0.363637,0.727273 0.181818,0.242424 0.384849,0.470304 0.545454,0.727273 0.14365,0.22984 0.219986,0.497432 0.363637,0.727273 0.160605,0.256969 0.384848,0.470303 0.545454,0.727272 0.14365,0.22984 0.242424,0.484849 0.363637,0.727273 0.121212,0.242424 0.242424,0.484848 0.363636,0.727273 0.121212,0.242424 0.206098,0.506719 0.363636,0.727272 0.149454,0.209236 0.396001,0.33622 0.545455,0.545455 0.157538,0.220553 0.219986,0.497433 0.363636,0.727273 0.160606,0.256969 0.384849,0.470303 0.545455,0.727272 0.14365,0.229841 0.213291,0.501755 0.363636,0.727273 0.09509,0.14263 0.26855,0.221007 0.363636,0.363637 0.879293,1.758585 -0.105661,-0.01967 0.727273,1.090909 0.210647,0.280862 0.343608,0.788138 0.545455,1.090909 0.104594,0.156891 0.403439,0.403439 0.545454,0.545454 0.06061,0.06061 0.143488,0.105157 0.181818,0.181818 0.05421,0.108416 -0.08571,0.277927 0,0.363637 0.04285,0.04285 0.138964,-0.04285 0.181819,0 0.04375,0.04375 -0.04375,0.683521 0,0.727273 0.04286,0.04285 0.138963,-0.04285 0.181818,0 0.04286,0.04285 -0.0271,0.12761 0,0.181818 C 51.856512,22.803934 52,22.994801 52,22.909091 52,22.773572 51.878788,22.666667 51.818182,22.545455 51.757576,22.424242 51.711536,22.294577 51.636364,22.181818 51.58882,22.110503 51.502089,22.071315 51.454545,22 50.888056,21.150265 51.810588,22.217781 50.909091,21.090909 50.311789,20.344281 50.741438,21.161153 50.181818,20.181818 50.047345,19.946491 49.961832,19.684386 49.818182,19.454545 49.657576,19.197576 49.454545,18.969697 49.272727,18.727273 49.090909,18.484848 48.913315,18.239198 48.727273,18 48.433151,17.621843 47.746787,16.801999 47.454545,16.363636 47.258519,16.069597 47.111747,15.744055 46.909091,15.454545 46.686548,15.136628 46.424242,14.848485 46.181818,14.545455 45.69697,13.939394 45.212121,13.333333 44.727273,12.727273 42.688266,10.178514 45.193145,13.392804 43.454545,10.909091 43.009461,10.273255 42.476502,9.703554 42,9.0909091 41.813957,8.8517114 41.654092,8.5916899 41.454545,8.3636364 39.471589,6.0974 41.922029,9.012938 40,7.0909091 39.845484,6.9363933 39.790879,6.6999703 39.636364,6.5454545 39.327332,6.2364231 38.886723,6.0911964 38.545455,5.8181818 38.277742,5.6040116 38.092454,5.2966129 37.818182,5.0909091 c -0.2944,-0.2208002 -0.360084,-0.08558 -0.545455,-0.3636364 -0.07517,-0.1127588 -0.06906,-0.2884638 -0.181818,-0.3636363 -0.100854,-0.067236 -0.262782,0.067236 -0.363636,0 C 36.281821,3.4727335 36.786753,4.2115583 36.363636,4 36.286976,3.961669 36.267526,3.8181818 36.181818,3.8181818 c -0.06061,0 -0.04286,0.1389632 0,0.1818182 0.04286,0.042855 0.138963,-0.042855 0.181818,0 0.08571,0.08571 -0.08571,0.2779265 0,0.3636364 0.04286,0.042855 0.138964,-0.042855 0.181819,0 0.04286,0.042855 0,0.1212121 0,0.1818181 0.06061,0.060606 0.110503,0.1342749 0.181818,0.1818182 0.112759,0.075173 0.267809,0.085992 0.363636,0.1818182 0.04285,0.042855 -0.0271,0.1276105 0,0.1818182 0.03833,0.076661 0.121212,0.1212121 0.181818,0.1818182 0.181818,0.1818182 0.363637,0.3636363 0.545455,0.5454545 C 37.878788,5.8787879 37.952457,5.928685 38,6 c 0.07517,0.1127588 0.100507,0.2552209 0.181818,0.3636364 0.102852,0.1371358 0.275442,0.216645 0.363637,0.3636363 0.31575,0.9472518 -0.02501,0.1960115 0.545454,0.9090909 C 39.227416,7.8069977 39.333333,8 39.454545,8.1818182 c 0.121213,0.1818182 0.255221,0.3557275 0.363637,0.5454545 0.268945,0.4706547 0.464017,0.9806849 0.727273,1.4545453 0.171621,0.30892 0.387413,0.593009 0.545454,0.909091 0.145959,0.291918 0.195719,0.629228 0.363636,0.909091 0.19966,0.332766 0.527614,0.576325 0.727273,0.909091 0.167918,0.279863 0.205136,0.623789 0.363637,0.909091 0.147164,0.264896 0.377363,0.475136 0.545454,0.727273 0.354167,0.53125 0.736743,1.286931 1.090909,1.818181 0.168091,0.252137 0.384849,0.470304 0.545455,0.727273 0.46136,0.922721 0.213291,0.501755 0.727272,1.272727 0.254207,0.38131 0.473066,0.709599 0.727273,1.090909 0.121212,0.181819 0.227129,0.374821 0.363637,0.545455 0.107085,0.133856 0.260784,0.226501 0.363636,0.363636 0.162623,0.216831 0.201013,0.510442 0.363636,0.727273 0.102852,0.137136 0.286975,0.210314 0.363637,0.363636 0.449346,0.898693 -0.403446,-0.03981 0.181818,0.545455 0.06061,0.06061 0.121212,0.121212 0.181818,0.181818 0.06061,0.06061 0.143488,0.105157 0.181818,0.181818 0.0271,0.05421 -0.0271,0.127611 0,0.181819 0.03833,0.07666 0.143488,0.105156 0.181818,0.181818 0.05421,0.108415 -0.05421,0.255221 0,0.363636 0.378342,0.756684 -0.01255,-0.19437 0.363637,0.181818 0.08571,0.08571 -0.08571,0.277927 0,0.363637 0.08571,0.08571 0.277926,-0.08571 0.363636,0 0.376188,0.376188 -0.574865,-0.01471 0.181818,0.363636 0.05421,0.0271 0.224673,0.04285 0.181818,0 -0.09583,-0.09583 -0.267809,-0.08599 -0.363636,-0.181818 -0.04286,-0.04285 0.04285,-0.138963 0,-0.181818 -0.04286,-0.04285 -0.12761,0.0271 -0.181818,0 -0.07666,-0.03833 -0.110503,-0.134275 -0.181818,-0.181819 -0.112759,-0.07517 -0.26781,-0.08599 -0.363637,-0.181818 C 48.171983,23.081074 48.162623,22.762285 48,22.545455 47.794296,22.271183 47.486898,22.085895 47.272727,21.818182 46.999713,21.476914 46.825239,21.063013 46.545455,20.727273 46.380844,20.52974 46.16461,20.379351 46,20.181818 45.860108,20.013948 45.763375,19.814179 45.636364,19.636364 45.460231,19.389778 45.251515,19.16606 45.090909,18.909091 44.947259,18.679251 44.889896,18.398649 44.727273,18.181818 44.521569,17.907546 44.205704,17.728817 44,17.454545 43.837377,17.237715 43.798987,16.944104 43.636364,16.727273 43.43066,16.453001 43.114795,16.274272 42.909091,16 42.746468,15.783169 42.6958,15.498245 42.545455,15.272727 42.330193,14.949835 42.033443,14.686529 41.818182,14.363636 41.667837,14.138119 41.617169,13.853194 41.454545,13.636364 41.248842,13.362092 40.932977,13.183363 40.727273,12.909091 40.402026,12.475429 40.315076,11.895652 40,11.454545 39.850546,11.24531 39.621883,11.104318 39.454545,10.909091 39.257336,10.679013 39.085224,10.428404 38.909091,10.181818 38.655069,9.8261869 38.454833,9.4321773 38.181818,9.0909091 38.074733,8.9570527 37.939394,8.8484848 37.818182,8.7272727 37.575758,8.4848485 37.333333,8.2424242 37.090909,8 36.969697,7.8787879 36.848485,7.7575758 36.727273,7.6363636 36.606061,7.5151515 36.500772,7.3755792 36.363636,7.2727273 36.255221,7.1914157 36.112759,7.1660817 36,7.0909091 35.834488,6.9805679 35.615698,6.6260307 35.454545,6.5454545 c -0.05421,-0.027104 -0.12761,0.027104 -0.181818,0 C 35.054545,6.4363636 34.945455,6.1090909 34.727273,6 34.673063,5.972896 34.58831,6.042855 34.545455,6 c -0.04285,-0.042855 0.04286,-0.1389632 0,-0.1818182 -0.04285,-0.042855 -0.121213,0 -0.181819,0 -0.06061,0 -0.181818,-0.060606 -0.181818,0 0,0.08571 0.143488,0.1051569 0.181818,0.1818182 0.0271,0.054208 0,0.1212121 0,0.1818182 0.06061,0.060606 0.143488,0.1051569 0.181819,0.1818182 0.0271,0.054208 -0.04285,0.1389632 0,0.1818181 0.04286,0.042855 0.154714,-0.054208 0.181818,0 0.05421,0.1084155 -0.05421,0.255221 0,0.3636364 0.0271,0.054208 0.154714,-0.054208 0.181818,0 0.05421,0.1084154 -0.05421,0.255221 0,0.3636364 0.0271,0.054208 0.138963,-0.042855 0.181818,0 0.09583,0.095827 0.106646,0.2508775 0.181818,0.3636363 0.04754,0.071315 0.134275,0.1105033 0.181818,0.1818182 0.07517,0.1127589 0.121213,0.2424243 0.181819,0.3636364 0.06061,0.1212121 0.131487,0.2378099 0.181818,0.3636363 0.07118,0.1779456 0.08321,0.3811133 0.181818,0.5454546 0.08819,0.1469913 0.275442,0.2166451 0.363636,0.3636364 0.0986,0.1643412 0.09611,0.3740347 0.181819,0.5454545 0.912992,1.825986 -0.229001,-0.9585773 0.727272,1.272727 0.437102,1.019905 -0.143705,0.0667 0.545455,1.272728 0.108415,0.189727 0.255221,0.355727 0.363636,0.545454 0.537063,0.93986 0.917483,1.969231 1.454546,2.909091 0.08465,0.14813 0.642627,0.94278 0.727272,1.090909 1.513368,2.648393 -0.47445,-0.767082 0.545455,1.272727 0.09772,0.195449 0.25121,0.358077 0.363636,0.545455 0.06972,0.116207 0.100507,0.255221 0.181818,0.363636 0.102852,0.137136 0.260785,0.226501 0.363637,0.363637 C 41.899493,19.744779 41.918688,19.891585 42,20 c 0.102852,0.137136 0.260784,0.226501 0.363636,0.363636 0.08131,0.108416 0.106646,0.250878 0.181819,0.363637 0.130536,0.195804 0.2331,0.167832 0.363636,0.363636 0.07517,0.112759 0.08599,0.26781 0.181818,0.363636 0.04285,0.04285 0.138963,-0.04285 0.181818,0 0.08571,0.08571 -0.08571,0.277927 0,0.363637 0.06061,0.06061 0.303031,-0.06061 0.363637,0 0.08571,0.08571 -0.05421,0.255221 0,0.363636 0.03833,0.07666 0.143487,0.105157 0.181818,0.181818 0.0271,0.05421 -0.0271,0.127611 0,0.181819 C 44.042855,22.994801 44,22.482695 44,22.909091 c 0,0.06061 0,0.121212 0,0.181818 0,0.06061 0.04286,0.224673 0,0.181818 -0.09583,-0.09583 -0.106646,-0.250877 -0.181818,-0.363636 -0.04754,-0.07131 -0.143488,-0.105157 -0.181818,-0.181818 -0.0271,-0.05421 0.0271,-0.127611 0,-0.181818 -0.03833,-0.07666 -0.121212,-0.121213 -0.181819,-0.181819 C 43.31253,22.221621 43.013685,21.975073 42.909091,21.818182 42.758746,21.592664 42.708078,21.30774 42.545455,21.090909 42.262833,20.71408 41.753696,20.373938 41.454545,20 41.318038,19.829366 41.212121,19.636364 41.090909,19.454545 40.848485,19.090909 40.606061,18.727273 40.363636,18.363636 40.242424,18.181818 40.139892,17.986052 40,17.818182 38.704308,16.52249 40.103442,17.992938 39.090909,16.727273 38.823196,16.392632 38.456169,16.147403 38.181818,15.818182 38.041926,15.650311 37.958074,15.440598 37.818182,15.272727 37.653571,15.075195 37.437338,14.924805 37.272727,14.727273 37.132835,14.559402 37.063607,14.336334 36.909091,14.181818 36.754575,14.027302 36.53427,13.954689 36.363636,13.818182 35.964523,13.498891 35.67184,13.046563 35.272727,12.727273 35.102093,12.590765 34.897907,12.500144 34.727273,12.363636 34.031416,11.806951 34.627183,12.230183 34.181818,11.636364 33.70466,11.000152 33.985494,11.48912 33.454545,11.090909 33.23051,10.922882 32.958739,10.517947 32.727273,10.363636 32.614514,10.288464 32.476395,10.256991 32.363636,10.181818 32.275356,10.122965 32.035074,9.8181818 32,9.8181818 c -0.220423,0 0.04526,0.2270752 0.181818,0.3636362 0.603015,0.603015 -0.08571,-0.17142 0.181818,0.363637 0.03833,0.07666 0.143488,0.105156 0.181819,0.181818 0.0271,0.05421 -0.04285,0.138963 0,0.181818 0.04286,0.04285 0.138963,-0.04285 0.181818,0 0.04286,0.04285 -0.0271,0.12761 0,0.181818 0.416055,0.832111 -0.07536,-0.77153 0.363636,0.545455 0.01916,0.0575 -0.01917,0.124322 0,0.181818 0.126774,0.380322 0.396455,0.71841 0.545455,1.090909 0.07118,0.177945 0.08321,0.381113 0.181818,0.545454 0.443979,0.739966 0.299216,-0.01144 0.545454,0.727273 0.07902,0.237062 0.07007,0.503769 0.181819,0.727273 0.07666,0.153322 0.275441,0.216645 0.363636,0.363636 0.09861,0.164342 0.09611,0.374035 0.181818,0.545455 0.09772,0.195448 0.25121,0.358077 0.363636,0.545454 0.06972,0.116207 0.112095,0.24743 0.181819,0.363637 0.256121,0.426869 0.37921,0.493479 0.545454,0.909091 0.07118,0.177945 0.11064,0.367509 0.181818,0.545454 0.100662,0.251653 0.242425,0.484849 0.363637,0.727273 0.06061,0.121212 0.106645,0.250877 0.181818,0.363636 0.04754,0.07132 0.143487,0.105157 0.181818,0.181818 0.0271,0.05421 0,0.121213 0,0.181819 0.06061,0.121212 0.106646,0.250877 0.181818,0.363636 0.04754,0.07131 0.143488,0.105157 0.181818,0.181818 0.05421,0.108416 -0.08571,0.277927 0,0.363637 0.04285,0.04285 0.138964,-0.04285 0.181819,0 0.04286,0.04285 0.04286,0.138963 0,0.181818 -0.174243,0.174242 -0.439394,-0.409091 -0.181819,0.363636 0.0271,0.08131 0.143488,0.105157 0.181819,0.181818 0.0271,0.05421 0,0.121212 0,0.181818 0.06061,0.06061 0.143487,0.105157 0.181818,0.181819 0.0271,0.05421 -0.0271,0.12761 0,0.181818 C 37.856512,21.894843 37.923339,21.961669 38,22 c 0.05421,0.0271 0.181818,-0.06061 0.181818,0 0,0.06061 -0.12761,0.0271 -0.181818,0 -0.07666,-0.03833 -0.105157,-0.143488 -0.181818,-0.181818 -0.05421,-0.0271 -0.127611,0.0271 -0.181818,0 -0.06503,-0.03251 -0.676865,-0.651661 -0.727273,-0.727273 -0.07517,-0.112759 -0.08599,-0.26781 -0.181818,-0.363636 -0.441601,-0.441601 -0.266986,0.05407 -0.545455,-0.363637 -0.30972,-0.46458 -0.02118,-0.334064 -0.545454,-0.727272 -0.108416,-0.08131 -0.26781,-0.08599 -0.363637,-0.181819 -0.09583,-0.09583 -0.106645,-0.250877 -0.181818,-0.363636 -0.04754,-0.07131 -0.121212,-0.121212 -0.181818,-0.181818 -0.121212,-0.121212 -0.242424,-0.242424 -0.363636,-0.363636 -0.121213,-0.121213 -0.226501,-0.260785 -0.363637,-0.363637 -0.216831,-0.162623 -0.510442,-0.201013 -0.727273,-0.363636 -0.786416,-0.786417 0.04817,-0.0285 -0.727272,-0.545455 -0.14263,-0.09509 -0.221007,-0.268549 -0.363637,-0.363636 -0.238479,-0.158986 -0.488793,-0.20465 -0.727272,-0.363636 -0.07132,-0.04754 -0.105157,-0.143488 -0.181819,-0.181819 -0.05421,-0.0271 -0.12761,0.0271 -0.181818,0 C 31.232884,16.343714 30.948935,16.019922 30.909091,16 c -0.05421,-0.0271 -0.127611,0.0271 -0.181818,0 -0.07666,-0.03833 -0.09611,-0.181818 -0.181818,-0.181818 -0.06061,0 0,0.121212 0,0.181818 0,0.06061 0,0.121212 0,0.181818 0,0.478217 0.145946,-0.07174 0.363636,0.363637 0.0271,0.05421 0,0.121212 0,0.181818 0,0.121212 -0.03833,0.248644 0,0.363636 0.03243,0.0973 0.331204,0.266339 0.363636,0.363636 0.03833,0.114992 -0.0294,0.246044 0,0.363637 0.03287,0.131473 0.121212,0.242424 0.181818,0.363636 0.06061,0.121212 0.106646,0.250878 0.181819,0.363637 0.09509,0.142629 0.309428,0.201013 0.363636,0.363636 0.03833,0.114992 -0.0294,0.246043 0,0.363636 0.03287,0.131473 0.121212,0.242425 0.181818,0.363637 0.06061,0.121212 0.106646,0.250877 0.181818,0.363636 0.09509,0.14263 0.309429,0.201013 0.363637,0.363636 0,0.827688 -0.08571,0.0104 0.181818,0.545455 0.0271,0.05421 -0.04285,0.138963 0,0.181818 0.04286,0.04285 0.138963,-0.04285 0.181818,0 0.04285,0.04285 0,0.121212 0,0.181818 0,0.06061 0.0271,0.127611 0,0.181818 -0.03833,0.07666 -0.121212,0.121213 -0.181818,0.181819 -0.06061,0.06061 -0.100507,0.154714 -0.181818,0.181818 -0.114992,0.03833 -0.242425,0 -0.363637,0"
       id="path3040"
       inkscape:connector-curvature="0" />
    <path
       style="fill:none;stroke:#000000;stroke-width:1px;stroke-linecap:butt;stroke-linejoin:miter;stroke-opacity:1"
       d="m 61.454545,18.909091 c -0.545454,-0.424243 -1.0183,-0.963696 -1.636363,-1.272727 -0.271039,-0.13552 -0.606953,-0.02324 -0.909091,0 -0.487183,0.03748 -0.973805,0.09441 -1.454546,0.181818 -0.377123,0.06857 -0.715046,0.288464 -1.090909,0.363636 -0.118858,0.02377 -0.246043,-0.0294 -0.363636,0 -0.131473,0.03287 -0.242424,0.121212 -0.363636,0.181818 -0.121212,0.06061 -0.242425,0.121212 -0.363637,0.181819"
       id="path3042"
       inkscape:connector-curvature="0" />
    <path
       style="fill:none;stroke:#000000;stroke-width:1px;stroke-linecap:butt;stroke-linejoin:miter;stroke-opacity:1"
       d="m 59.090909,6.9090909 c -1.151515,1.2121212 -2.30303,2.4242424 -3.454545,3.6363641"
       id="path3044"
       inkscape:connector-curvature="0" />
    <path
       style="fill:none;stroke:#000000;stroke-width:1px;stroke-linecap:butt;stroke-linejoin:miter;stroke-opacity:1"
       d="M 46.545455,0.36363636 C 44.528295,8.4322755 46.739048,1.7096105 45.454545,3.6363636 45.137208,4.1123698 46.218341,3.4362839 45.090909,4"
       id="path3046"
       inkscape:connector-curvature="0" />
  </g>
</svg>
