<?xml version="1.0" encoding="UTF-8" standalone="no"?>
<!-- Created with Inkscape (http://www.inkscape.org/) -->

<svg
   xmlns:dc="http://purl.org/dc/elements/1.1/"
   xmlns:cc="http://creativecommons.org/ns#"
   xmlns:rdf="http://www.w3.org/1999/02/22-rdf-syntax-ns#"
   xmlns:svg="http://www.w3.org/2000/svg"
   xmlns="http://www.w3.org/2000/svg"
   xmlns:sodipodi="http://sodipodi.sourceforge.net/DTD/sodipodi-0.dtd"
   xmlns:inkscape="http://www.inkscape.org/namespaces/inkscape"
   width="64px"
   height="64px"
   id="svg2985"
   version="1.1"
   inkscape:version="0.48.4 r9939"
   sodipodi:docname="hmax.svg">
  <defs
     id="defs2987" />
  <sodipodi:namedview
     id="base"
     pagecolor="#ffffff"
     bordercolor="#666666"
     borderopacity="1.0"
     inkscape:pageopacity="0.0"
     inkscape:pageshadow="2"
     inkscape:zoom="5.5"
     inkscape:cx="32"
     inkscape:cy="32"
     inkscape:current-layer="layer1"
     showgrid="true"
     inkscape:document-units="px"
     inkscape:grid-bbox="true"
     inkscape:window-width="1280"
     inkscape:window-height="660"
     inkscape:window-x="-8"
     inkscape:window-y="-8"
     inkscape:window-maximized="1" />
  <metadata
     id="metadata2990">
    <rdf:RDF>
      <cc:Work
         rdf:about="">
        <dc:format>image/svg+xml</dc:format>
        <dc:type
           rdf:resource="http://purl.org/dc/dcmitype/StillImage" />
        <dc:title></dc:title>
      </cc:Work>
    </rdf:RDF>
  </metadata>
  <g
     id="layer1"
     inkscape:label="Layer 1"
     inkscape:groupmode="layer">
    <path
       style="fill:none;stroke:#000000;stroke-width:1px;stroke-linecap:butt;stroke-linejoin:miter;stroke-opacity:1"
       d="m 51.454545,13.090909 c -1.030303,-0.484848 -2.033667,-1.031649 -3.090909,-1.454545 -0.0272,-0.01088 -1.018011,0.01041 -1.090909,0 -1.96969,-0.492423 0.499771,0.06247 -1.454545,-0.181819 -0.247956,-0.03099 -0.479899,-0.146479 -0.727273,-0.181818 -0.179991,-0.02571 -0.363636,0 -0.545454,0 -0.484849,0 -0.969697,0 -1.454546,0 -0.30303,0 -0.607914,0.03346 -0.909091,0 -0.248357,-0.02759 -0.479317,-0.150823 -0.727273,-0.181818 -0.541242,-0.06766 -1.093616,0.05428 -1.636363,0 -0.307498,-0.03075 -0.601329,-0.15384 -0.909091,-0.181818 -0.362143,-0.03292 -0.727273,0 -1.090909,0 -0.909091,0 -1.818182,0 -2.727273,0 -0.666667,0 -1.333333,0 -2,0 -0.363636,0 -0.728529,-0.0302 -1.090909,0 -0.923595,0.07697 -1.984578,0.377361 -2.909091,0.545454 -2.687692,0.488672 0.498992,-0.06189 -2.181818,0.181819 -0.307762,0.02798 -0.606061,0.121212 -0.909091,0.181818 -0.490578,0.09812 -1.534755,0.317112 -2,0.363636 -0.241221,0.02412 -0.486052,-0.02412 -0.727273,0 -0.366822,0.03668 -0.724086,0.145136 -1.090909,0.181818 -0.241221,0.02412 -0.484848,0 -0.727273,0 -0.30303,0 -0.60606,0 -0.90909,0 -1.09091,0 -2.181819,0 -3.272728,0 -0.666666,0 -1.333333,0 -2,0 -0.242424,0 -0.487285,0.03428 -0.727272,0 -0.189727,-0.0271 -0.356409,-0.15031 -0.545455,-0.181818 -0.179344,-0.02989 -0.363636,0 -0.545455,0 -0.484848,0 -0.969697,0 -1.454545,0 -0.363636,0 -0.727273,0 -1.090909,0 -0.121212,0 -0.248645,0.03833 -0.363636,0 C 10.41689,12.138963 10.310383,12.042855 10.181818,12 c -0.102581,-0.03419 -0.4259803,0 -0.5454544,0 -0.1818181,0 -0.3636363,0 -0.5454545,0 -0.060606,0 -0.1818182,-0.06061 -0.1818182,0 0,0.08571 0.1434876,0.105157 0.1818182,0.181818 0.1212121,0.242424 -0.1818182,0.181818 0.1818182,0.181818"
       id="path3016"
       inkscape:connector-curvature="0" />
    <path
       style="fill:none;stroke:#000000;stroke-width:1px;stroke-linecap:butt;stroke-linejoin:miter;stroke-opacity:1"
       d="m 29.090909,12.363636 c -0.382802,-1.148405 -0.363636,-0.707602 -0.363636,-1.272727 0,-0.06061 -0.04285,-0.138963 0,-0.181818 0.04285,-0.04285 0.181818,-0.06061 0.181818,0 0,0.04171 -0.675447,-0.05183 -0.727273,0 -0.09583,0.09583 -0.06906,0.288464 -0.181818,0.363636 -0.100855,0.06724 -0.255221,-0.05421 -0.363636,0 -0.153323,0.07666 -0.226501,0.260785 -0.363637,0.363637 -1.033918,0.775438 0.386098,-0.567916 -0.727272,0.545454 -0.424243,0.424243 -0.848485,0.848485 -1.272728,1.272727 -0.181818,0.181819 -0.380844,0.347922 -0.545454,0.545455 -0.139892,0.16787 -0.223745,0.377584 -0.363637,0.545455 -0.16461,0.197532 -0.380844,0.347922 -0.545454,0.545454 -0.139892,0.16787 -0.236625,0.367639 -0.363637,0.545455 -0.176132,0.246586 -0.369321,0.480686 -0.545454,0.727272 -0.127011,0.177816 -0.223744,0.377585 -0.363636,0.545455 C 22.380844,17.106623 22.149454,17.24531 22,17.454545 c -0.157538,0.220554 -0.206098,0.50672 -0.363636,0.727273 -0.149454,0.209235 -0.380844,0.347922 -0.545455,0.545455 -0.279784,0.33574 -0.447489,0.755168 -0.727273,1.090909 -1.489304,1.787166 0.339296,-0.521114 -1.090909,0.909091 -0.309031,0.309031 -0.454258,0.749641 -0.727272,1.090909 -0.390224,0.48778 -0.384084,0.307267 -0.909091,0.727273 -0.89963,0.719703 0.21774,-0.03592 -0.727273,0.90909 -0.154516,0.154516 -0.374821,0.22713 -0.545455,0.363637 C 16.22978,23.925267 16.121212,24.060606 16,24.181818 c -0.121212,0.121212 -0.256551,0.22978 -0.363636,0.363637 -0.136508,0.170634 -0.227129,0.37482 -0.363637,0.545454 -0.107085,0.133856 -0.242424,0.242424 -0.363636,0.363636 -0.121212,0.121213 -0.226501,0.260785 -0.363636,0.363637 -0.108416,0.08131 -0.255221,0.100506 -0.363637,0.181818 -0.137136,0.102852 -0.242424,0.242424 -0.363636,0.363636 -0.06061,0.06061 -0.134275,0.110504 -0.181818,0.181819 -0.07517,0.112758 -0.08599,0.267809 -0.181819,0.363636 -0.09583,0.09583 -0.267809,0.08599 -0.363636,0.181818 -0.04285,0.04285 0.04285,0.138963 0,0.181818 -0.09583,0.09583 -0.26781,0.08599 -0.363636,0.181818 -0.08571,0.08571 0.05421,0.255221 0,0.363637 -0.03631,0.07262 -0.567735,0.443405 -0.363637,0.545454 0.108416,0.05421 0.242425,0 0.363637,0"
       id="path3018"
       inkscape:connector-curvature="0" />
    <path
       style="fill:none;stroke:#000000;stroke-width:1px;stroke-linecap:butt;stroke-linejoin:miter;stroke-opacity:1"
       d="m 28,12.181818 c -0.06061,-0.363636 -0.10952,-0.729416 -0.181818,-1.090909 -0.01189,-0.05943 -0.04285,0.138963 0,0.181818 0.04285,0.04285 0.169932,-0.05943 0.181818,0 0.05943,0.297146 -0.232794,0.715096 0,0.909091 0.279353,0.232795 0.730081,-0.0451 1.090909,0 0.134473,0.01681 0.255221,0.100507 0.363636,0.181818 0.137136,0.102852 0.226501,0.260785 0.363637,0.363637 0.108415,0.08131 0.255221,0.100506 0.363636,0.181818 0.137136,0.102852 0.221007,0.26855 0.363637,0.363636 0.225517,0.150345 0.501755,0.213292 0.727272,0.363637 0.14263,0.09509 0.221007,0.268549 0.363637,0.363636 0.225517,0.150345 0.497432,0.219986 0.727272,0.363636 0.25697,0.160606 0.470304,0.384849 0.727273,0.545455 0.22984,0.14365 0.510442,0.201013 0.727273,0.363636 0.274272,0.205704 0.453001,0.521569 0.727273,0.727273 0.21683,0.162623 0.501755,0.213291 0.727272,0.363636 0.322892,0.215262 0.602769,0.489022 0.909091,0.727273 0.239198,0.186043 0.488075,0.359412 0.727273,0.545455 0.306322,0.23825 0.591173,0.50473 0.909091,0.727272 1.391475,0.974033 0.468839,0.07331 1.818182,1.272728 1.040498,0.924887 0.415619,0.600024 1.636363,1.454545 0.289509,0.202657 0.615052,0.349429 0.909091,0.545455 0.252137,0.168091 0.484849,0.363636 0.727273,0.545454 0.484848,0.363637 0.969697,0.727273 1.454545,1.090909 0.242425,0.181818 0.470304,0.384849 0.727273,0.545455 0.22984,0.14365 0.491945,0.229163 0.727273,0.363636 0.963486,0.550564 0.150791,0.156997 1.090909,0.909091 0.105823,0.08466 0.242424,0.121212 0.363636,0.181818 0.363637,0.181818 0.727273,0.363637 1.090909,0.545455"
       id="path3020"
       inkscape:connector-curvature="0" />
    <path
       style="fill:none;stroke:#000000;stroke-width:1px;stroke-linecap:butt;stroke-linejoin:miter;stroke-opacity:1"
       d="m 26.363636,11.272727 c 0.424243,0.242425 0.848485,0.484849 1.272728,0.727273 0.06061,0 0.12761,-0.0271 0.181818,0 0.07666,0.03833 0.143487,0.105157 0.181818,0.181818 0.0078,0.0155 0.0078,0.711774 0,0.727273 -0.03833,0.07666 -0.154714,0.100507 -0.181818,0.181818 -0.03833,0.114992 0,0.242424 0,0.363636 0,0.181819 0.02989,0.366111 0,0.545455 -0.03151,0.189046 -0.144232,0.357523 -0.181818,0.545455 -0.02377,0.118858 0,0.242424 0,0.363636 0,0.242424 0,0.484848 0,0.727273 0,0.484848 0,0.969697 0,1.454545 0,0.641016 0,1.177166 0,1.818182 0,0.363636 -0.03292,0.728766 0,1.090909 0.333962,3.673586 0.03576,-2.262344 0.363636,2 0.03254,0.422993 -0.03254,0.849734 0,1.272727 0.02827,0.367567 0.121212,0.727273 0.181818,1.090909 0.06061,0.424243 0.151285,0.845267 0.181818,1.272728 0.03023,0.423164 -0.03254,0.849734 0,1.272727 0.02828,0.367566 0.121212,0.727273 0.181819,1.090909 0.06061,0.424242 0.151285,0.845267 0.181818,1.272727 0.05613,0.785877 -0.06043,1.578079 0,2.363637 0.06574,0.854574 0.2979,1.69088 0.363636,2.545454 0.06508,0.845986 -0.06045,1.699126 0,2.545455 0.02626,0.367715 0.153544,0.723342 0.181818,1.090909 0.03254,0.422993 -0.03254,0.849734 0,1.272727 0.02828,0.367566 0.153544,0.723343 0.181818,1.090909 0.03254,0.422993 0,0.848485 0,1.272727 0,1.212122 0,2.424243 0,3.636364 0,1.151515 0,2.30303 0,3.454546 0,0.363636 0,0.727272 0,1.090909 0,0.181818 -0.03566,0.367167 0,0.545454 0.05316,0.265775 0.2979,0.464327 0.363637,0.727273 0.0588,0.235186 -0.07666,0.497289 0,0.727273 0.0271,0.08131 0.143487,0.105157 0.181818,0.181818 0.0271,0.05421 0,0.121212 0,0.181818 0.06061,0.06061 0.143488,0.105157 0.181818,0.181818 0.02767,0.05533 0,0.463572 0,0.545455 0,0.06061 0,0.121212 0,0.181818 0,0.06061 0.04285,0.138963 0,0.181818 -0.04285,0.04285 -0.12761,-0.0271 -0.181818,0 -0.756684,0.378342 0.19437,-0.01255 -0.181818,0.363636 -0.04285,0.04285 -0.127611,-0.0271 -0.181818,0 -0.756684,0.378342 0.19437,-0.01255 -0.181819,0.363637 -0.04285,0.04286 -0.138963,-0.04286 -0.181818,0 0,0.267528 0.04285,0.138963 -0.181818,0.363636"
       id="path3022"
       inkscape:connector-curvature="0" />
  </g>
</svg>
